<svg xmlns="http://www.w3.org/2000/svg" viewBox="2151.903 1958.422 36.052 33.126">
  <defs>
    <style>
      .cls-1 {
        fill: #f7e60f;
      }
    </style>
  </defs>
  <path id="begeni_icon" class="cls-1" d="M17.916,6.051A9.44,9.44,0,0,1,26.557.2c5.221,0,8.912,4.411,9.452,9.722a9.647,9.647,0,0,1-.27,3.691,15.724,15.724,0,0,1-4.951,8.282L17.916,33.326,5.313,21.894A15.724,15.724,0,0,1,.363,13.612a9.647,9.647,0,0,1-.27-3.691C.543,4.611,4.323.2,9.454.2a9.063,9.063,0,0,1,8.462,5.851Zm0,0" transform="translate(2151.878 1958.222)"/>
</svg>
