<svg xmlns="http://www.w3.org/2000/svg" xmlns:xlink="http://www.w3.org/1999/xlink" viewBox="2183.52 1607.535 61.408 61.408">
  <defs>
    <style>
      .cls-1 {
        fill: #f7e60f;
      }

      .cls-2 {
        fill: url(#linear-gradient);
      }
    </style>
    <linearGradient id="linear-gradient" x1="0.259" y1="0.337" x2="0.78" y2="0.776" gradientUnits="objectBoundingBox">
      <stop offset="0" stop-color="#234491"/>
      <stop offset="1" stop-color="#2b8b56"/>
    </linearGradient>
  </defs>
  <g id="change_photo_icon" transform="translate(2183.52 1607.535)">
    <ellipse id="Ellipse_5" data-name="Ellipse 5" class="cls-1" cx="30.704" cy="30.704" rx="30.704" ry="30.704" transform="translate(0 0)"/>
    <path id="change_photo_icon-2" data-name="change_photo_icon" class="cls-2" d="M4.712,30.621A4.534,4.534,0,0,1,1.38,29.242,4.534,4.534,0,0,1,0,25.91V9.423A4.554,4.554,0,0,1,1.374,6.091,4.533,4.533,0,0,1,4.7,4.711H8.831L9.772,2.2A3.427,3.427,0,0,1,11.048.652,3.313,3.313,0,0,1,12.956,0h9.423a3.243,3.243,0,0,1,1.9.658,3.386,3.386,0,0,1,1.276,1.553l.941,2.5h4.125a4.535,4.535,0,0,1,3.331,1.379,4.562,4.562,0,0,1,1.38,3.332V25.91a4.711,4.711,0,0,1-4.712,4.711Zm7.123-18.78a7.955,7.955,0,0,0-2.417,5.826,7.947,7.947,0,0,0,2.417,5.826,7.946,7.946,0,0,0,5.826,2.416,7.934,7.934,0,0,0,5.826-2.416A7.914,7.914,0,0,0,25.9,17.667a7.939,7.939,0,0,0-2.418-5.826,7.947,7.947,0,0,0-5.826-2.418A7.936,7.936,0,0,0,11.835,11.841Zm2.088,9.571a5.292,5.292,0,0,1,0-7.49,5.292,5.292,0,0,1,7.489,0,5.292,5.292,0,0,1,0,7.49,5.292,5.292,0,0,1-7.489,0Z" transform="translate(12.513 13.718)"/>
  </g>
</svg>
