<svg xmlns="http://www.w3.org/2000/svg" viewBox="2550.403 1305.151 40.86 31.944">
  <defs>
    <style>
      .cls-1 {
        fill: #234491;
      }
    </style>
  </defs>
  <path id="firsatlarim_icon" class="cls-1" d="M11.045,31.218a3.133,3.133,0,0,0,4.436,0l15.2-15.2a4.278,4.278,0,0,0,.986-1.51,16.254,16.254,0,0,0,4.321.65c3.241-.021,4.311-1.437,4.667-2.286s.608-2.6-1.668-4.919l-.073-.073a18.245,18.245,0,0,0-5.779-3.671c-.43-.178-.86-.336-1.28-.482V3.708A3.427,3.427,0,0,0,28.466.32l-9.1-.126a4.377,4.377,0,0,0-3.209,1.311L.945,16.692a3.133,3.133,0,0,0,0,4.436ZM22.76,5.627a2.6,2.6,0,0,1,4.4,2.213,18.084,18.084,0,0,0,3.461,1.888c.451.189.891.357,1.311.493l-.052-3.66.22.094a15.724,15.724,0,0,1,4.929,3.1l.052.052c1.091,1.112,1.206,1.825,1.112,2.045-.283.682-3.346,1.28-7.992-.65a18.232,18.232,0,0,1-3.671-2.035c-.031.042-.073.084-.1.126A2.6,2.6,0,1,1,22.76,5.627Zm0,0" transform="translate(2550.378 1304.957)"/>
</svg>
