<svg xmlns="http://www.w3.org/2000/svg" viewBox="2149.945 2034.866 38.51 38.51">
  <defs>
    <style>
      .cls-1, .cls-2 {
        fill: #234491;
      }

      .cls-1 {
        stroke: #fff;
      }
    </style>
  </defs>
  <g id="follower_icon" transform="translate(431 2009.745)">
    <path id="Path_168" data-name="Path 168" class="cls-1" d="M18.755,0A18.755,18.755,0,1,0,37.51,18.755,18.756,18.756,0,0,0,18.755,0ZM29.322,29.322c-.117.117-.239.235-.362.347-.269-4.924-1.514-6.493-7.225-7.523a3.811,3.811,0,0,1-2.98,1.138,3.811,3.811,0,0,1-2.98-1.138c-5.711,1.031-6.962,2.6-7.225,7.523-.122-.112-.239-.23-.362-.347a14.954,14.954,0,1,1,21.134,0Z" transform="translate(1719.445 25.621)"/>
    <path id="Path_169" data-name="Path 169" class="cls-2" d="M275.842,158.2c-4.641,0-5.442,2.961-5.442,6.61s2.438,6.61,5.442,6.61,5.442-2.961,5.442-6.61S280.483,158.2,275.842,158.2Z" transform="translate(1462.255 -124.85)"/>
  </g>
</svg>
