<svg xmlns="http://www.w3.org/2000/svg" viewBox="2334.413 1309.985 35 23.15">
  <defs>
    <style>
      .cls-1 {
        fill: #234491;
      }
    </style>
  </defs>
  <g id="genel_bakis_icon" transform="translate(2334.338 1309.985)">
    <path id="Path_170" data-name="Path 170" class="cls-1" d="M34.967,12.054a1.114,1.114,0,0,0,0-.959,19.171,19.171,0,0,0-34.783,0,1.114,1.114,0,0,0,0,.959,19.209,19.209,0,0,0,6.959,8.01,19.245,19.245,0,0,0,20.9,0A19.4,19.4,0,0,0,34.967,12.054Zm-17.4,8.784A15.92,15.92,0,0,1,3.217,11.713l-.066-.144.066-.144a15.848,15.848,0,0,1,28.7,0l.066.144-.066.144A15.92,15.92,0,0,1,17.568,20.838Z" transform="translate(0)"/>
    <path id="Path_171" data-name="Path 171" class="cls-1" d="M91.776,40.3a6.276,6.276,0,1,0,6.277,6.276A6.276,6.276,0,0,0,91.776,40.3Zm2.14,2.626a1.024,1.024,0,1,1-1.024,1.024A1.026,1.026,0,0,1,93.917,42.926Zm-2.14,7.327a3.667,3.667,0,0,1-.21-7.327,2.572,2.572,0,0,0-.276,1.142,2.5,2.5,0,0,0,4.1,1.917,4.494,4.494,0,0,1,.053.6A3.665,3.665,0,0,1,91.776,50.253Z" transform="translate(-74.208 -35.008)"/>
  </g>
</svg>
