<?xml version="1.0" encoding="utf-8"?>
<!-- Generator: Adobe Illustrator 22.0.1, SVG Export Plug-In . SVG Version: 6.00 Build 0)  -->
<svg version="1.1" id="Layer_1" xmlns="http://www.w3.org/2000/svg" xmlns:xlink="http://www.w3.org/1999/xlink" x="0px" y="0px"
	 viewBox="0 0 77.6 77.6" style="enable-background:new 0 0 77.6 77.6;" xml:space="preserve">
<style type="text/css">
	.st0{fill:#FFFFFF;}
	.st1{fill:#D10D0D;}
</style>
<circle class="st0" cx="38.8" cy="38.8" r="27.9"/>
<path class="st1" d="M65.9,11.7c-15-15-39.2-15-54.2,0s-15,39.2,0,54.2s39.2,15,54.2,0S80.8,26.7,65.9,11.7z M56.3,56.3
	c-2,2-5.2,2-7.2,0l0,0L38.8,46L28.4,56.3c-2,1.9-5.2,1.9-7.2-0.1c-1.9-2-1.9-5.1,0-7l10.4-10.4L21.3,28.4c-2-2-2-5.2,0-7.2
	s5.2-2,7.2,0l0,0l10.4,10.4l10.4-10.4c2-1.9,5.2-1.9,7.2,0.1c1.9,2,1.9,5.1,0,7L46,38.8l10.4,10.4C58.3,51.1,58.3,54.3,56.3,56.3z"
	/>
</svg>
