<svg xmlns="http://www.w3.org/2000/svg" viewBox="3024.403 1306.683 35 30.412">
  <defs>
    <style>
      .cls-1 {
        fill: #234491;
      }
    </style>
  </defs>
  <path id="kaydedilenler_icon" class="cls-1" d="M34.88,9.979,30.214.646A1.132,1.132,0,0,0,29.171,0H5.837A1.128,1.128,0,0,0,4.8.646L.128,9.979A1.169,1.169,0,0,0,.292,11.27L16.625,30.015a1.164,1.164,0,0,0,.879.4,1.179,1.179,0,0,0,.879-.4L34.717,11.27A1.169,1.169,0,0,0,34.88,9.979Zm-7.6-7.646L24.6,11.022,19.838,2.333Zm-4.814,9.731H13.134L17.5,3.111Zm-7.3-9.731L11,11.022,7.728,2.333ZM5.837,3.772l3.073,8.292L3.061,9.334Zm-2.1,7.895L10.031,14.4,15.49,25.154ZM17.5,23.94,12.566,14.4H23.035Zm2.022,1.213L25.571,14.4l5.7-2.731Zm7.164-13.089,2.48-8.292,2.777,5.561Z" transform="translate(3024.399 1306.683)"/>
</svg>
