<svg xmlns="http://www.w3.org/2000/svg" viewBox="1719.717 20.814 36.067 36.948">
  <defs>
    <style>
      .cls-1 {
        fill: #f7e60f;
      }
    </style>
  </defs>
  <g id="login_icon" transform="translate(1719.717 20.814)">
    <path id="Path_170" data-name="Path 170" class="cls-1" d="M16.356,218.387c.909.909,1.766,1.771,2.637,2.647.053-.053.12-.106.183-.168l8.272-8.286c.221-.221.221-.221,0-.443q-4.114-4.114-8.234-8.224c-.077-.077-.159-.144-.231-.212l-2.623,2.608c1.386,1.381,2.777,2.767,4.225,4.206H0v3.715H20.553C19.114,215.658,17.723,217.03,16.356,218.387Z" transform="translate(0 -193.898)"/>
    <path id="Path_171" data-name="Path 171" class="cls-1" d="M25.3,0A18.486,18.486,0,0,0,8.1,11.732h4.114a14.71,14.71,0,1,1,.048,13.575H8.138A18.474,18.474,0,1,0,25.3,0Z" transform="translate(-7.71)"/>
  </g>
</svg>
