<svg xmlns="http://www.w3.org/2000/svg" viewBox="2419.849 2907.715 51.901 41.285">
  <defs>
    <style>
      .cls-1 {
        fill: #f7e60f;
      }
    </style>
  </defs>
  <g id="Group_46" data-name="Group 46" transform="translate(2419.849 2907.715)">
    <path id="Union_9" data-name="Union 9" class="cls-1" d="M-2410.08-4023.43a1.9,1.9,0,0,1-1.77-1.769v-37.747a1.9,1.9,0,0,1,1.77-1.769h48.362a1.7,1.7,0,0,1,1.769,1.769v37.747a1.9,1.9,0,0,1-1.769,1.769Zm3.244-3.539h41.285l-12.386-13.27-5.9,6.192a1.533,1.533,0,0,1-1.18.59,2.237,2.237,0,0,1-1.179-.59l-7.667-10.027Zm30.374-16.513,13.27,14.154v-32.143h-45.413v31.553l13.271-17.693c.59-.3.884-.591,1.474-.591a1.621,1.621,0,0,1,1.474.591l7.668,10.026,5.6-5.9a1.529,1.529,0,0,1,1.179-.591A1.623,1.623,0,0,1-2376.462-4043.482Zm-6.193-9.437a5.6,5.6,0,0,1,5.6-5.6,5.6,5.6,0,0,1,5.6,5.6,5.6,5.6,0,0,1-5.6,5.6A5.423,5.423,0,0,1-2382.655-4052.919Zm3.244,0a2.09,2.09,0,0,0,2.36,2.065,2.015,2.015,0,0,0,2.064-2.065,2.015,2.015,0,0,0-2.064-2.064A2.279,2.279,0,0,0-2379.411-4052.919Z" transform="translate(2411.85 4064.715)"/>
  </g>
</svg>
