<svg xmlns="http://www.w3.org/2000/svg" viewBox="2180.849 2917.499 27.301 21.716">
  <defs>
    <style>
      .cls-1 {
        fill: #f7e60f;
      }
    </style>
  </defs>
  <g id="Group_47" data-name="Group 47" transform="translate(2180.849 2917.5)">
    <path id="Union_8" data-name="Union 8" class="cls-1" d="M-2189.919-4052.784a1,1,0,0,1-.93-.93v-19.855a1,1,0,0,1,.93-.93h25.439a.894.894,0,0,1,.931.93v19.855a1,1,0,0,1-.931.93Zm1.707-1.861h21.716l-6.515-6.98-3.1,3.257a.8.8,0,0,1-.621.311,1.179,1.179,0,0,1-.621-.311l-4.033-5.273Zm15.977-8.687,6.98,7.445v-16.907h-23.887v16.6l6.98-9.307c.31-.155.465-.31.775-.31a.855.855,0,0,1,.776.31l4.033,5.274,2.947-3.1a.806.806,0,0,1,.621-.31A.854.854,0,0,1-2172.236-4063.331Zm-3.257-4.964a2.945,2.945,0,0,1,2.947-2.947,2.945,2.945,0,0,1,2.947,2.947,2.944,2.944,0,0,1-2.947,2.947A2.851,2.851,0,0,1-2175.493-4068.295Zm1.706,0a1.1,1.1,0,0,0,1.241,1.086,1.061,1.061,0,0,0,1.086-1.086,1.061,1.061,0,0,0-1.086-1.086A1.2,1.2,0,0,0-2173.787-4068.295Z" transform="translate(2190.85 4074.5)"/>
  </g>
</svg>
