<svg xmlns="http://www.w3.org/2000/svg" viewBox="2151.403 1303.598 35 35">
  <defs>
    <style>
      .cls-1 {
        fill: #234491;
      }
    </style>
  </defs>
  <path id="settings_icon" class="cls-1" d="M35,19.654V15.27l-5.216-.832a14.056,14.056,0,0,0-1.436-3.477l3.024-4.309-3.1-3.1-4.233,3.1a14.056,14.056,0,0,0-3.477-1.436L19.654,0H15.27l-.832,5.216a11.667,11.667,0,0,0-3.477,1.436L6.728,3.629,3.553,6.652l3.024,4.233A11.667,11.667,0,0,0,5.14,14.363L0,15.27v4.384l5.14.907a12.954,12.954,0,0,0,1.436,3.477L3.553,28.272l3.1,3.1,4.233-3.024a14.056,14.056,0,0,0,3.477,1.436L15.194,35h4.46l.983-5.216a14.056,14.056,0,0,0,3.477-1.436l4.309,3.024,3.1-3.1-3.1-4.233a12.954,12.954,0,0,0,1.436-3.477ZM17.462,26.987a9.525,9.525,0,1,1,9.525-9.525A9.533,9.533,0,0,1,17.462,26.987Z" transform="translate(2151.403 1303.598)"/>
</svg>
