<?xml version="1.0" encoding="utf-8"?>
<!-- Generator: Adobe Illustrator 22.0.1, SVG Export Plug-In . SVG Version: 6.00 Build 0)  -->
<svg version="1.1" id="Layer_1" xmlns="http://www.w3.org/2000/svg" xmlns:xlink="http://www.w3.org/1999/xlink" x="0px" y="0px"
	 viewBox="0 0 37.6 35.7" style="enable-background:new 0 0 37.6 35.7;" xml:space="preserve">
<style type="text/css">
	.st0{fill:#234491;}
</style>
<path class="st0" d="M37.3,34.5c-1.4-1.4-2.4-4.5-2.8-8.5c1.9-2.6,2.9-5.9,2.9-9.1c0-9.2-8.4-16.8-18.6-16.8S0.2,7.6,0.2,16.9
	s8.4,16.8,18.6,16.8c2.6,0,5.2-0.5,7.6-1.5c4.1,2.4,10.1,3.2,10.3,3.3h0.1c0.2,0,0.4-0.1,0.5-0.3C37.5,35,37.5,34.7,37.3,34.5z
	 M9.1,20.3c-2.1,0-3.8-1.7-3.8-3.8c0-2.1,1.7-3.8,3.8-3.8s3.8,1.7,3.8,3.8C12.8,18.7,11.1,20.3,9.1,20.3z M18.9,20.3
	c-2.1,0-3.8-1.7-3.8-3.8c0-2.1,1.7-3.8,3.8-3.8s3.8,1.7,3.8,3.8C22.6,18.7,21,20.3,18.9,20.3z M28.7,20.4c-2.1,0-3.8-1.7-3.8-3.8
	c0-2.1,1.7-3.8,3.8-3.8s3.8,1.7,3.8,3.8C32.4,18.7,30.8,20.4,28.7,20.4z"/>
</svg>
