<svg xmlns="http://www.w3.org/2000/svg" xmlns:xlink="http://www.w3.org/1999/xlink" viewBox="3224 803 40 40">
  <defs>
    <style>
      .cls-1 {
        fill: #f7e60f;
      }

      .cls-2 {
        fill: url(#linear-gradient);
      }
    </style>
    <linearGradient id="linear-gradient" x1="0.755" y1="0.361" x2="0.229" y2="0.381" gradientUnits="objectBoundingBox">
      <stop offset="0" stop-color="#2b8b56"/>
      <stop offset="1" stop-color="#234491"/>
    </linearGradient>
  </defs>
  <g id="reply_icon" transform="translate(2982 -39)">
    <circle id="Ellipse_6" data-name="Ellipse 6" class="cls-1" cx="20" cy="20" r="20" transform="translate(282 882) rotate(180)"/>
    <path id="Path_42" data-name="Path 42" class="cls-2" d="M.268,7.375,7.38.263a.869.869,0,0,1,1.245,0,.854.854,0,0,1,.263.623V4.442H12q9.9,0,12.152,5.6a12.529,12.529,0,0,1,.739,4.626,16.682,16.682,0,0,1-1.766,6.266c-.029.063-.078.175-.146.331s-.131.3-.19.418a1.5,1.5,0,0,1-.18.306.48.48,0,0,1-.389.238.4.4,0,0,1-.326-.141.521.521,0,0,1-.117-.345,2.685,2.685,0,0,1,.034-.37,2.571,2.571,0,0,0,.034-.326c.049-.628.068-1.2.068-1.708a11.955,11.955,0,0,0-.243-2.515A7.471,7.471,0,0,0,21,14.9a4.874,4.874,0,0,0-1.109-1.4,6.455,6.455,0,0,0-1.464-.963,7.943,7.943,0,0,0-1.849-.589,16.775,16.775,0,0,0-2.141-.3c-.72-.054-1.532-.083-2.437-.083H8.888v3.556A.9.9,0,0,1,8,16.01a.872.872,0,0,1-.628-.263L.263,8.635A.854.854,0,0,1,0,8.012.886.886,0,0,1,.268,7.375Z" transform="translate(248.954 851.088)"/>
  </g>
</svg>
