<svg xmlns="http://www.w3.org/2000/svg" xmlns:xlink="http://www.w3.org/1999/xlink" viewBox="4964 304.878 40 40">
  <defs>
    <style>
      .cls-1 {
        fill: #f7e60f;
      }

      .cls-2 {
        fill: url(#linear-gradient);
      }
    </style>
    <linearGradient id="linear-gradient" x1="0.076" y1="0.5" x2="0.906" y2="0.5" gradientUnits="objectBoundingBox">
      <stop offset="0" stop-color="#234491"/>
      <stop offset="1" stop-color="#2b8b56"/>
    </linearGradient>
  </defs>
  <g id="detay_icon" transform="translate(4811 -534)">
    <ellipse id="Ellipse_36" data-name="Ellipse 36" class="cls-1" cx="20" cy="20" rx="20" ry="20" transform="translate(153 838.878)"/>
    <path id="Union_6" data-name="Union 6" class="cls-2" d="M-2897.455-809.879a2,2,0,0,1-2-2,2,2,0,0,1,2-2h8.711a2,2,0,0,1,2,2,2,2,0,0,1-2,2Zm0-7a2,2,0,0,1-2-2,2,2,0,0,1,2-2h17.725a2,2,0,0,1,2,2,2,2,0,0,1-2,2Zm0-7a2,2,0,0,1-2-2,2,2,0,0,1,2-2h17.725a2,2,0,0,1,2,2,2,2,0,0,1-2,2Z" transform="translate(3061.73 1677.878)"/>
  </g>
</svg>
