<svg xmlns="http://www.w3.org/2000/svg" viewBox="1126.415 1975.978 62 62.004">
  <defs>
    <style>
      .cls-1 {
        fill: #fff;
        stroke: #000;
        stroke-miterlimit: 10;
      }

      .cls-2 {
        fill: #3b5998;
      }
    </style>
  </defs>
  <g id="FB-Icon" transform="translate(1126.415 1975.978)">
    <ellipse id="Ellipse_12" data-name="Ellipse 12" class="cls-1" cx="23.247" cy="23.247" rx="23.247" ry="23.247" transform="translate(9.093 7.756)"/>
    <g id="Group_3" data-name="Group 3" transform="translate(0 0)">
      <g id="svg_1_1_" transform="translate(0 0)">
        <path id="svg_2_1_" class="cls-2" d="M29.138-1023.941a31.066,31.066,0,0,0-11.566,3A31.079,31.079,0,0,0,.623-999.178,31.054,31.054,0,0,0,3.082-979.52a31.047,31.047,0,0,0,21.739,16.906,31.054,31.054,0,0,0,19.658-2.459A31.178,31.178,0,0,0,58.926-979.52a30.766,30.766,0,0,0,2.817-9.465,30.971,30.971,0,0,0-2.817-17.485,31.177,31.177,0,0,0-14.447-14.447A30.953,30.953,0,0,0,29.138-1023.941Zm12.646,16.878-.021,3.381-3.288.036c-3.717.043-3.488,0-3.889.629-.407.65-.436.872-.436,3.531v2.416H41.8v6.362H34.15v19.015H26.787v-19.015H20.21v-6.362h6.577v-2.295a13.832,13.832,0,0,1,.4-4.4,9.158,9.158,0,0,1,6.126-6.348c1.029-.279,1.473-.3,5.111-.315l3.374-.007Z" transform="translate(-0.003 1023.998)"/>
      </g>
    </g>
  </g>
</svg>
