<?xml version="1.0" encoding="utf-8"?>
<!-- Generator: Adobe Illustrator 22.0.1, SVG Export Plug-In . SVG Version: 6.00 Build 0)  -->
<svg version="1.1" id="Layer_1" xmlns="http://www.w3.org/2000/svg" xmlns:xlink="http://www.w3.org/1999/xlink" x="0px" y="0px"
	 viewBox="0 0 399 62" style="enable-background:new 0 0 399 62;" xml:space="preserve">
<style type="text/css">
	.st0{fill:#F7E60F;}
	.st1{fill:#234491;}
</style>
<path id="Rectangle_59" class="st0" d="M31,0h337c17.1,0,31,13.9,31,31l0,0c0,17.1-13.9,31-31,31H31C13.9,62,0,48.1,0,31l0,0
	C0,13.9,13.9,0,31,0z"/>
<g>
	<path class="st1" d="M64.1,33.8c-0.6-0.3-1.2-0.6-2-0.6s-1.3,0.3-1.3,0.8s0.6,0.7,1.4,0.8l0.4,0.1c1.3,0.2,2.2,0.7,2.2,2
		c0,1.5-1.4,2.3-2.9,2.3c-1.1,0-2.2-0.3-3-0.9l0.7-1.1c0.5,0.4,1.3,0.8,2.2,0.8c0.8,0,1.4-0.3,1.4-0.8s-0.5-0.7-1.5-0.8l-0.4-0.1
		c-1.2-0.2-2.1-0.7-2.1-2c0-1.5,1.3-2.2,2.8-2.2c1,0,1.8,0.2,2.7,0.7L64.1,33.8z"/>
	<path class="st1" d="M67.6,30.6c0,0.5-0.4,0.9-0.9,0.9s-0.9-0.4-0.9-0.9s0.4-0.9,0.9-0.9S67.6,30.1,67.6,30.6z M67.6,39h-1.4v-7
		h1.4V39z"/>
	<path class="st1" d="M74.4,33.1l-3.6,4.6h3.6V39h-5.5v-1.1l3.6-4.6h-3.6V32h5.5V33.1z"/>
	<path class="st1" d="M80.8,39h-5.1v-7h1.4v5.7h3.7V39z"/>
	<path class="st1" d="M87,39h-5.2v-7H87v1.3h-3.8v1.6h3.6v1.3h-3.6v1.6H87V39z"/>
	<path class="st1" d="M91.4,32c1.7,0,2.6,0.8,2.6,2.1c0,1.2-0.8,1.9-2.1,2.1L94,39h-1.7l-2-2.8h-0.4V39h-1.4v-7H91.4z M89.9,33.3V35
		h1.5c0.8,0,1.2-0.3,1.2-0.9s-0.4-0.8-1.2-0.8C91.4,33.3,89.9,33.3,89.9,33.3z"/>
	<path class="st1" d="M100.6,39h-5.2v-7h5.2v1.3h-3.8v1.6h3.6v1.3h-3.6v1.6h3.8V39z"/>
	<path class="st1" d="M107.4,32c2.2,0,3.6,1.4,3.6,3.5s-1.4,3.5-3.6,3.5h-2.9v-7H107.4z M105.9,33.3v4.4h1.5c1.5,0,2.2-0.9,2.2-2.2
		c0-1.3-0.7-2.2-2.2-2.2C107.4,33.3,105.9,33.3,105.9,33.3z"/>
	<path class="st1" d="M118.5,39H117l-0.6-1.6h-3l-0.6,1.6h-1.5l2.7-7h1.7L118.5,39z M113.9,36.1h2l-1-2.7L113.9,36.1z"/>
	<path class="st1" d="M120.8,34.8h3.4V32h1.4v7h-1.4v-2.9h-3.4V39h-1.4v-7h1.4V34.8z"/>
	<path class="st1" d="M133.7,39h-1.5l-0.6-1.6h-3L128,39h-1.5l2.7-7h1.7L133.7,39z M129.1,36.1h2l-1-2.7L129.1,36.1z"/>
	<path class="st1" d="M139,36.1h-0.6V39H137v-7h1.4v2.8h0.7l2.3-2.8h1.8l-2.9,3.4l3.2,3.6h-1.8L139,36.1z"/>
	<path class="st1" d="M150.7,39h-1.5l-0.6-1.6h-3L145,39h-1.5l2.7-7h1.7L150.7,39z M146.1,36.1h2l-1-2.7L146.1,36.1z"/>
	<path class="st1" d="M156.8,39h-5.1v-7h1.4v5.7h3.7L156.8,39L156.8,39z"/>
	<path class="st1" d="M159.3,30.1c0,0.5-0.4,0.9-0.9,0.9s-0.9-0.4-0.9-0.9s0.4-0.9,0.9-0.9S159.3,29.6,159.3,30.1z M159.1,39h-1.4
		v-7h1.4V39z"/>
	<path class="st1" d="M165.9,33.3h-2.2V39h-1.4v-5.7h-2.2V32h5.7L165.9,33.3L165.9,33.3z"/>
	<path class="st1" d="M172.1,39h-5.2v-7h5.2v1.3h-3.8v1.6h3.6v1.3h-3.6v1.6h3.8V39z"/>
	<path class="st1" d="M178.7,39h-5.1v-7h1.4v5.7h3.7L178.7,39L178.7,39z"/>
	<path class="st1" d="M181.2,30.1c0,0.5-0.4,0.9-0.9,0.9s-0.9-0.4-0.9-0.9s0.4-0.9,0.9-0.9S181.2,29.6,181.2,30.1z M181.1,39h-1.4
		v-7h1.4V39z"/>
	<path class="st1" d="M186.6,34.8h3.4V32h1.4v7H190v-2.9h-3.4V39h-1.4v-7h1.4V34.8z"/>
	<path class="st1" d="M194.5,30.1c0,0.5-0.4,0.9-0.9,0.9s-0.9-0.4-0.9-0.9s0.4-0.9,0.9-0.9S194.5,29.6,194.5,30.1z M194.4,39H193v-7
		h1.4V39z"/>
	<path class="st1" d="M201.2,33.1l-3.6,4.6h3.6V39h-5.5v-1.1l3.6-4.6h-3.6V32h5.5V33.1z"/>
	<path class="st1" d="M210.2,39h-1.4v-5.3l-1.7,4.6h-1.5l-1.7-4.6V39h-1.4v-7h2l1.8,4.7l1.8-4.7h2L210.2,39L210.2,39z"/>
	<path class="st1" d="M217.1,39h-5.2v-7h5.2v1.3h-3.8v1.6h3.6v1.3h-3.6v1.6h3.8V39z"/>
	<path class="st1" d="M223.6,33.3h-2.2V39H220v-5.7h-2.2V32h5.7L223.6,33.3L223.6,33.3z"/>
	<path class="st1" d="M229.7,39h-5.1v-7h1.4v5.7h3.7L229.7,39L229.7,39z"/>
	<path class="st1" d="M236,39h-5.2v-7h5.2v1.3h-3.8v1.6h3.6v1.3h-3.6v1.6h3.8V39z"/>
	<path class="st1" d="M240.4,32c1.7,0,2.6,0.8,2.6,2.1c0,1.2-0.8,1.9-2.1,2.1L243,39h-1.7l-2-2.8h-0.4V39h-1.4v-7H240.4z
		 M238.8,33.3V35h1.5c0.8,0,1.2-0.3,1.2-0.9s-0.4-0.8-1.2-0.8C240.3,33.3,238.8,33.3,238.8,33.3z"/>
	<path class="st1" d="M251.5,33.8c-0.6-0.3-1.2-0.6-2-0.6s-1.3,0.3-1.3,0.8s0.6,0.7,1.4,0.8l0.4,0.1c1.3,0.2,2.2,0.7,2.2,2
		c0,1.5-1.4,2.3-2.9,2.3c-1.1,0-2.2-0.3-3-0.9l0.7-1.1c0.5,0.4,1.3,0.8,2.2,0.8c0.8,0,1.4-0.3,1.4-0.8s-0.5-0.7-1.5-0.8l-0.4-0.1
		c-1.2-0.2-2.1-0.7-2.1-2c0-1.5,1.3-2.2,2.8-2.2c1,0,1.8,0.2,2.7,0.7L251.5,33.8z"/>
	<path class="st1" d="M259.5,36.2c0,1.9-1.2,2.9-3,2.9c-1.8,0-3-1-3-2.9V32h1.4v4.1c0,1.2,0.7,1.7,1.6,1.7c0.9,0,1.6-0.5,1.6-1.7V32
		h1.4V36.2z"/>
	<path class="st1" d="M267.3,39H266l-3.6-4.7V39H261v-7h1.3l3.6,4.7V32h1.4V39z"/>
	<path class="st1" d="M275.4,39h-1.5l-0.6-1.6h-3l-0.6,1.6h-1.5l2.7-7h1.7L275.4,39z M270.8,36.1h2l-1-2.7L270.8,36.1z"/>
	<path class="st1" d="M279.2,32c1.6,0,2.7,0.6,2.7,1.9c0,0.7-0.4,1.3-1,1.5c0.6,0.2,1.2,0.8,1.2,1.6c0,1.3-1,2-2.6,2h-3v-7H279.2z
		 M277.7,33.2v1.6h1.4c0.7,0,1.2-0.1,1.2-0.8c0-0.7-0.6-0.8-1.2-0.8C279.1,33.2,277.7,33.2,277.7,33.2z M277.7,36.1v1.7h1.6
		c0.8,0,1.3-0.2,1.3-0.9c0-0.7-0.5-0.8-1.3-0.8C279.3,36.1,277.7,36.1,277.7,36.1z"/>
	<path class="st1" d="M284.9,30.1c0,0.5-0.4,0.9-0.9,0.9s-0.9-0.4-0.9-0.9s0.4-0.9,0.9-0.9S284.9,29.6,284.9,30.1z M284.7,39h-1.4
		v-7h1.4V39z"/>
	<path class="st1" d="M291.4,39h-5.1v-7h1.4v5.7h3.7V39z"/>
	<path class="st1" d="M300.2,39h-1.4v-5.3l-1.7,4.6h-1.5l-1.7-4.6V39h-1.4v-7h2l1.8,4.7l1.8-4.7h2v7H300.2z"/>
	<path class="st1" d="M307,39h-5.2v-7h5.2v1.3h-3.8v1.6h3.6v1.3h-3.6v1.6h3.8V39z"/>
	<path class="st1" d="M310.5,36.1h-0.6V39h-1.4v-7h1.4v2.8h0.7l2.3-2.8h1.8l-2.9,3.4L315,39h-2L310.5,36.1z"/>
	<path class="st1" d="M319.6,30.1c0,0.5-0.4,0.9-0.9,0.9s-0.9-0.4-0.9-0.9s0.4-0.9,0.9-0.9S319.6,29.6,319.6,30.1z M319.4,39H318v-7
		h1.4V39z"/>
	<path class="st1" d="M327.4,33.4l-1.2,0.7c-0.4-0.6-1-1-1.8-1c-1.3,0-2.2,0.9-2.2,2.3s1,2.3,2.2,2.3c0.8,0,1.4-0.4,1.8-1l1.1,0.8
		c-0.5,0.8-1.3,1.3-2.3,1.4l-0.5,1.5h-1.3l0.5-1.5c-1.8-0.3-3-1.7-3-3.6c0-2.1,1.5-3.6,3.7-3.6C325.7,31.9,326.8,32.5,327.4,33.4z"
		/>
	<path class="st1" d="M330.2,30.1c0,0.5-0.4,0.9-0.9,0.9s-0.9-0.4-0.9-0.9s0.4-0.9,0.9-0.9C329.8,29.2,330.2,29.6,330.2,30.1z
		 M330,39h-1.4v-7h1.4V39z"/>
	<path class="st1" d="M337.9,39h-1.3l-3.6-4.7V39h-1.4v-7h1.3l3.6,4.7V32h1.4V39z"/>
	<path class="st1" d="M341,37.4l-0.7,3h-1.1l0.3-3H341z"/>
</g>
<g>
	<path class="st1" d="M110.2,48.2h-3.5V51h-1.4v-7h5.1v1.3h-3.7v1.6h3.5V48.2z"/>
	<path class="st1" d="M113.3,42.1c0,0.5-0.4,0.9-0.9,0.9s-0.9-0.4-0.9-0.9s0.4-0.9,0.9-0.9S113.3,41.6,113.3,42.1z M113.1,51h-1.4
		v-7h1.4V51z"/>
	<path class="st1" d="M116.8,48.1h-0.6V51h-1.4v-7h1.4v2.8h0.7l2.3-2.8h1.8l-2.9,3.4l3.2,3.6h-1.8L116.8,48.1z"/>
	<path class="st1" d="M123.4,42.1c0,0.5-0.4,0.9-0.9,0.9s-0.9-0.4-0.9-0.9s0.4-0.9,0.9-0.9C123.1,41.2,123.4,41.6,123.4,42.1z
		 M123.3,51h-1.4v-7h1.4V51z"/>
	<path class="st1" d="M127.9,44c1.7,0,2.6,0.8,2.6,2.1c0,1.2-0.8,1.9-2.1,2.1l2.2,2.8h-1.7l-2-2.8h-0.4V51h-1.4v-7H127.9z
		 M126.3,45.3V47h1.5c0.8,0,1.2-0.3,1.2-0.9s-0.4-0.8-1.2-0.8C127.8,45.3,126.3,45.3,126.3,45.3z"/>
	<path class="st1" d="M136.8,51h-5.1v-7h1.4v5.7h3.7L136.8,51L136.8,51z"/>
	<path class="st1" d="M143.1,51h-5.2v-7h5.2v1.3h-3.8v1.6h3.6v1.3h-3.6v1.6h3.8V51z"/>
	<path class="st1" d="M147.5,44c1.7,0,2.6,0.8,2.6,2.1c0,1.2-0.8,1.9-2.1,2.1l2.2,2.8h-1.7l-2-2.8h-0.4V51h-1.4v-7H147.5z
		 M145.9,45.3V47h1.5c0.8,0,1.2-0.3,1.2-0.9s-0.4-0.8-1.2-0.8C147.4,45.3,145.9,45.3,145.9,45.3z"/>
	<path class="st1" d="M152.9,42.1c0,0.5-0.4,0.9-0.9,0.9s-0.9-0.4-0.9-0.9s0.4-0.9,0.9-0.9C152.6,41.2,152.9,41.6,152.9,42.1z
		 M152.8,51h-1.4v-7h1.4V51z"/>
	<path class="st1" d="M160.7,51h-1.3l-3.6-4.7V51h-1.4v-7h1.3l3.6,4.7V44h1.4V51z"/>
	<path class="st1" d="M163.9,42.1c0,0.5-0.4,0.9-0.9,0.9s-0.9-0.4-0.9-0.9s0.4-0.9,0.9-0.9S163.9,41.6,163.9,42.1z M163.7,51h-1.4
		v-7h1.4V51z"/>
	<path class="st1" d="M170.5,45.1l-3.6,4.6h3.6V51H165v-1.1l3.6-4.6H165V44h5.5V45.1z"/>
	<path class="st1" d="M177.2,44c1.6,0,2.7,0.6,2.7,1.9c0,0.7-0.4,1.3-1,1.5c0.6,0.2,1.2,0.8,1.2,1.6c0,1.3-1,2-2.6,2h-3v-7H177.2z
		 M175.7,45.2v1.6h1.4c0.7,0,1.2-0.1,1.2-0.8c0-0.7-0.6-0.8-1.2-0.8C177.1,45.2,175.7,45.2,175.7,45.2z M175.7,48.1v1.7h1.6
		c0.8,0,1.3-0.2,1.3-0.9c0-0.7-0.5-0.8-1.3-0.8C177.3,48.1,175.7,48.1,175.7,48.1z"/>
	<path class="st1" d="M182.8,42.1c0,0.5-0.4,0.9-0.9,0.9s-0.9-0.4-0.9-0.9s0.4-0.9,0.9-0.9C182.5,41.2,182.8,41.6,182.8,42.1z
		 M182.7,51h-1.4v-7h1.4V51z"/>
	<path class="st1" d="M189.5,45.1l-3.6,4.6h3.6V51H184v-1.1l3.6-4.6H184V44h5.5V45.1z"/>
	<path class="st1" d="M192.3,42.1c0,0.5-0.4,0.9-0.9,0.9s-0.9-0.4-0.9-0.9s0.4-0.9,0.9-0.9C192,41.2,192.3,41.6,192.3,42.1z
		 M192.2,51h-1.4v-7h1.4V51z"/>
	<path class="st1" d="M201.5,51h-1.4v-5.3l-1.7,4.6h-1.5l-1.7-4.6V51h-1.4v-7h2l1.8,4.7l1.8-4.7h2L201.5,51L201.5,51z"/>
	<path class="st1" d="M207.2,42.1c0,0.5-0.4,0.9-0.9,0.9s-0.9-0.4-0.9-0.9s0.4-0.9,0.9-0.9C206.9,41.2,207.2,41.6,207.2,42.1z
		 M207.1,51h-1.4v-7h1.4V51z"/>
	<path class="st1" d="M215,45.4l-1.2,0.7c-0.4-0.6-1-1-1.8-1c-1.3,0-2.2,0.9-2.2,2.3s1,2.3,2.2,2.3c0.8,0,1.4-0.4,1.8-1l1.1,0.8
		c-0.5,0.8-1.3,1.3-2.3,1.4l-0.5,1.5h-1.3l0.5-1.5c-1.8-0.3-3-1.7-3-3.6c0-2.1,1.5-3.6,3.7-3.6C213.3,43.9,214.5,44.5,215,45.4z"/>
	<path class="st1" d="M217.8,42.1c0,0.5-0.4,0.9-0.9,0.9s-0.9-0.4-0.9-0.9s0.4-0.9,0.9-0.9C217.5,41.2,217.8,41.6,217.8,42.1z
		 M217.7,51h-1.4v-7h1.4V51z"/>
	<path class="st1" d="M225.6,51h-1.3l-3.6-4.7V51h-1.4v-7h1.3l3.6,4.7V44h1.4V51z"/>
	<path class="st1" d="M236.1,45.4l-1.2,0.7c-0.4-0.6-1-1-1.8-1c-1.3,0-2.2,0.9-2.2,2.3s1,2.3,2.2,2.3c0.8,0,1.4-0.4,1.8-1l1.1,0.8
		c-0.5,0.8-1.3,1.3-2.3,1.4l-0.5,1.5h-1.3l0.5-1.5c-1.8-0.3-3-1.7-3-3.6c0-2.1,1.5-3.6,3.7-3.6C234.3,43.9,235.5,44.5,236.1,45.4z"
		/>
	<path class="st1" d="M244.2,47.5c0,2.1-1.5,3.6-3.7,3.6s-3.7-1.5-3.7-3.6s1.5-3.6,3.7-3.6S244.2,45.4,244.2,47.5z M238.3,47.5
		c0,1.4,0.9,2.3,2.2,2.3s2.2-0.9,2.2-2.3s-0.9-2.3-2.2-2.3S238.3,46.1,238.3,47.5z"/>
	<path class="st1" d="M247.5,48.1h-0.6V51h-1.4v-7h1.4v2.8h0.7l2.3-2.8h1.8l-2.9,3.4L252,51h-2L247.5,48.1z"/>
	<path class="st1" d="M262,47.5c0,2.1-1.5,3.6-3.7,3.6s-3.7-1.5-3.7-3.6s1.5-3.6,3.7-3.6S262,45.4,262,47.5z M256.1,47.5
		c0,1.4,0.9,2.3,2.2,2.3c1.3,0,2.2-0.9,2.2-2.3s-0.9-2.3-2.2-2.3C257.1,45.2,256.1,46.1,256.1,47.5z M258.2,42.1
		c0,0.5-0.4,0.8-0.8,0.8c-0.5,0-0.8-0.4-0.8-0.8s0.4-0.8,0.8-0.8C257.8,41.3,258.2,41.7,258.2,42.1z M260.4,42.1
		c0,0.5-0.4,0.8-0.8,0.8c-0.5,0-0.8-0.4-0.8-0.8s0.4-0.8,0.8-0.8C260,41.3,260.4,41.7,260.4,42.1z"/>
	<path class="st1" d="M269.6,51h-1.3l-3.6-4.7V51h-1.4v-7h1.3l3.6,4.7V44h1.4V51z"/>
	<path class="st1" d="M276.5,51h-5.2v-7h5.2v1.3h-3.8v1.6h3.6v1.3h-3.6v1.6h3.8V51z"/>
	<path class="st1" d="M285.6,51h-1.4v-5.3l-1.7,4.6H281l-1.7-4.6V51h-1.4v-7h2l1.8,4.7l1.8-4.7h2v7H285.6z"/>
	<path class="st1" d="M292.4,51h-5.1v-7h1.4v5.7h3.7V51z"/>
	<path class="st1" d="M294.9,42.1c0,0.5-0.4,0.9-0.9,0.9s-0.9-0.4-0.9-0.9s0.4-0.9,0.9-0.9S294.9,41.6,294.9,42.1z M294.8,51h-1.4
		v-7h1.4V51z"/>
</g>
<g>
	<g>
		<polygon class="st1" points="272.9,20 274,11.4 269,11.4 270,20 		"/>
	</g>
	<g>
		<path class="st1" d="M129,19.8v4.3h-4V11.4h10.4v3.5H129v1.4h5.9v3.5H129z"/>
		<path class="st1" d="M137,24.1V11.4h4v12.7H137z"/>
		<path class="st1" d="M148,16l2.8-4.6h4.8l-4.4,6.2l4.8,6.5h-4.8l-3.2-4.6h-0.9v4.6h-4V11.4h4V16H148z"/>
		<path class="st1" d="M168.1,15.8c0,1.9-1,3.2-3,3.8l3.3,4.5h-4.7l-2.7-4.3h-0.1v4.3h-4V11.4h6C166.3,11.4,168.1,13.2,168.1,15.8z
			 M160.9,16.7h1.9c0.7,0,1.3-0.3,1.3-0.9c0-0.7-0.6-1-1.3-1h-1.9V16.7z"/>
		<path class="st1" d="M169.9,24.1V11.4h4v12.7H169.9z"/>
		<path class="st1" d="M184.8,24.1l-4.8-6.3v6.3h-4V11.4h3.9l4.8,6.3v-6.3h4v12.7H184.8z"/>
		<path class="st1" d="M190.8,24.1V11.4h4v12.7H190.8z"/>
		<path class="st1" d="M207.4,14.6c-0.9,0-1.4,0.1-1.4,0.6c0,0.5,1.2,0.6,2.5,0.8l0.4,0.1c2.9,0.6,4.1,2,4.1,3.7
			c0,3.2-2.6,4.5-5.7,4.5c-2.5,0-4.6-0.6-6.1-1.7l1.8-3.1c1.1,0.6,2.2,1.3,4.4,1.3c0.8,0,1.3-0.1,1.3-0.6c0-0.5-0.7-0.6-2.3-0.9
			l-0.4-0.1c-3-0.5-4.3-1.9-4.3-3.9c0-2.5,2.1-4.3,5.4-4.3c1.6,0,3.4,0.2,5.7,1.4l-1.6,3.1C210,15,208.7,14.6,207.4,14.6z"/>
		<path class="st1" d="M228.1,17.8c0,3.8-2.9,6.6-6.9,6.6c-4,0-6.9-2.8-6.9-6.6c0-3.8,2.9-6.6,6.9-6.6
			C225.2,11.2,228.1,14,228.1,17.8z M220.6,7.4c0,1.4-1,2.4-2.4,2.4c-1.4,0-2.4-1-2.4-2.4c0-1.4,1-2.4,2.4-2.4
			C219.6,5,220.6,6.1,220.6,7.4z M218.4,17.8c0,1.6,1.1,2.8,2.8,2.8c1.7,0,2.8-1.1,2.8-2.8c0-1.6-1.1-2.8-2.8-2.8
			C219.5,15,218.4,16.1,218.4,17.8z M226.3,7.4c0,1.4-1,2.4-2.4,2.4c-1.4,0-2.4-1-2.4-2.4c0-1.4,1-2.4,2.4-2.4
			C225.3,5,226.3,6.1,226.3,7.4z"/>
		<path class="st1" d="M237.5,24.1h-4v-4.6l-4.9-8.1h4.6l2.3,4.5l2.3-4.5h4.4l-4.7,8.1V24.1z"/>
		<path class="st1" d="M243.3,24.1V11.4h4v9.1h6v3.7H243.3z"/>
		<path class="st1" d="M254.6,24.1V11.4H265v3.3h-6.4v1.3h5.9v3.3h-5.9v1.4h6.4v3.3H254.6z"/>
	</g>
	<circle class="st1" cx="192.8" cy="7.4" r="2.4"/>
	<circle class="st1" cx="271.5" cy="22.9" r="1.9"/>
	<circle class="st1" cx="171.9" cy="7.4" r="2.4"/>
	<circle class="st1" cx="139" cy="7.4" r="2.4"/>
</g>
</svg>
