<svg xmlns="http://www.w3.org/2000/svg" xmlns:xlink="http://www.w3.org/1999/xlink" viewBox="4963 572.878 40 40">
  <defs>
    <style>
      .cls-1 {
        fill: #f7e60f;
      }

      .cls-2 {
        fill: url(#linear-gradient);
      }
    </style>
    <linearGradient id="linear-gradient" x1="0.263" y1="0.28" x2="0.847" y2="0.884" gradientUnits="objectBoundingBox">
      <stop offset="0" stop-color="#234491"/>
      <stop offset="1" stop-color="#2b8b56"/>
    </linearGradient>
  </defs>
  <g id="firsat_tarihleri_icon" transform="translate(3730 561.878)">
    <ellipse id="Ellipse_36" data-name="Ellipse 36" class="cls-1" cx="20" cy="20" rx="20" ry="20" transform="translate(1233 11)"/>
    <path id="Union_5" data-name="Union 5" class="cls-2" d="M-4137.962-1091.515a2.045,2.045,0,0,1-2.038-2.048v-16.112a2.046,2.046,0,0,1,1.979-2.034v2.746a2.243,2.243,0,0,0,2.249,2.244h1.419a2.255,2.255,0,0,0,2.262-2.244v-2.761h6.4v2.761a2.255,2.255,0,0,0,2.262,2.244h1.42a2.245,2.245,0,0,0,2.248-2.244v-2.746a2.051,2.051,0,0,1,1.984,2.034v16.112a2.053,2.053,0,0,1-2.039,2.048Zm.564-11.377v8.323a.883.883,0,0,0,.88.88h15.223a.882.882,0,0,0,.879-.88v-8.323a.881.881,0,0,0-.879-.879h-15.223A.882.882,0,0,0-4137.4-1102.892Zm12.108,8.006a.518.518,0,0,1-.517-.516v-1.8a.518.518,0,0,1,.517-.516h1.8a.518.518,0,0,1,.517.516l0,1.8a.518.518,0,0,1-.517.516Zm-4.5,0a.517.517,0,0,1-.517-.516v-1.8a.517.517,0,0,1,.517-.516h1.8a.518.518,0,0,1,.517.516v1.8a.518.518,0,0,1-.517.516Zm-4.5,0a.518.518,0,0,1-.517-.516v-1.8a.518.518,0,0,1,.517-.516h1.8a.518.518,0,0,1,.517.516v1.8a.518.518,0,0,1-.517.516Zm9-4.5a.519.519,0,0,1-.517-.517v-1.8a.519.519,0,0,1,.517-.517h1.8a.519.519,0,0,1,.517.517h0v1.8a.519.519,0,0,1-.517.517Zm-4.5,0a.518.518,0,0,1-.517-.517v-1.8a.518.518,0,0,1,.517-.517h1.8a.518.518,0,0,1,.517.517v1.8a.518.518,0,0,1-.517.517Zm-4.5,0a.518.518,0,0,1-.517-.517v-1.8a.518.518,0,0,1,.517-.517h1.8a.519.519,0,0,1,.517.517v1.8a.519.519,0,0,1-.517.517Zm10.846-8.808a.773.773,0,0,1-.772-.768v-4.507a.773.773,0,0,1,.772-.772h1.406a.77.77,0,0,1,.772.772v4.5a.774.774,0,0,1-.772.773Zm-12.332,0a.773.773,0,0,1-.773-.768v-4.507a.77.77,0,0,1,.773-.772h1.4a.773.773,0,0,1,.773.772v4.5a.771.771,0,0,1-.773.773Z" transform="translate(5382 1133.605)"/>
  </g>
</svg>
