<svg xmlns="http://www.w3.org/2000/svg" xmlns:xlink="http://www.w3.org/1999/xlink" viewBox="4963 169.473 40 40">
  <defs>
    <style>
      .cls-1 {
        fill: #f7e60f;
      }

      .cls-2 {
        fill: url(#linear-gradient);
      }
    </style>
    <linearGradient id="linear-gradient" x1="0.111" y1="0.171" x2="0.65" y2="0.116" gradientUnits="objectBoundingBox">
      <stop offset="0" stop-color="#234491"/>
      <stop offset="1" stop-color="#2b8b56"/>
    </linearGradient>
  </defs>
  <g id="fiyat_icon" transform="translate(4963 169.473)">
    <circle id="Ellipse_5" data-name="Ellipse 5" class="cls-1" cx="20" cy="20" r="20" transform="translate(0)"/>
    <path id="Path_8" data-name="Path 8" class="cls-2" d="M7.18,20.337a2.034,2.034,0,0,0,2.88,0l9.867-9.867a2.778,2.778,0,0,0,.64-.981,10.554,10.554,0,0,0,2.806.422c2.1-.014,2.8-.933,3.03-1.485s.395-1.689-1.083-3.194l-.048-.048A11.846,11.846,0,0,0,21.521,2.8c-.279-.116-.558-.218-.831-.313V2.475a2.225,2.225,0,0,0-2.2-2.2L12.58.194a2.842,2.842,0,0,0-2.084.851L.623,10.906a2.034,2.034,0,0,0,0,2.88ZM14.787,3.721a1.686,1.686,0,0,1,2.86,1.437,11.742,11.742,0,0,0,2.247,1.226c.293.123.579.232.851.32l-.034-2.377.143.061a10.209,10.209,0,0,1,3.2,2.016l.034.034c.708.722.783,1.185.722,1.328-.184.443-2.172.831-5.189-.422a11.838,11.838,0,0,1-2.383-1.321c-.02.027-.048.054-.068.082a1.685,1.685,0,1,1-2.383-2.383Zm0,0" transform="translate(7.062 9.855)"/>
  </g>
</svg>
