<svg xmlns="http://www.w3.org/2000/svg" viewBox="1213.171 1975.759 62 62">
  <defs>
    <style>
      .cls-1 {
        fill: #dc4e41;
      }

      .cls-2 {
        fill: #fff;
      }
    </style>
  </defs>
  <g id="G_Icon" data-name="G+Icon" transform="translate(1213.171 1975.759)">
    <ellipse id="Ellipse_10" data-name="Ellipse 10" class="cls-1" cx="31" cy="31" rx="31" ry="31" transform="translate(0 0)"/>
    <g id="Group_1" data-name="Group 1" transform="translate(11.276 18.418)">
      <path id="Path_2" data-name="Path 2" class="cls-2" d="M26.089,55.138a12.612,12.612,0,0,1,20.883-9.425C45.934,46.837,44.9,47.961,43.815,49c-2.205-1.34-4.842-2.378-7.437-1.47A7.911,7.911,0,1,0,41.74,62.4,6.934,6.934,0,0,0,45.8,57.645c-2.378-.043-4.8,0-7.177-.086v-4.28H50.6c.259,3.5-.259,7.22-2.551,10.031-3.113,3.978-8.82,5.188-13.49,3.589A12.374,12.374,0,0,1,26.089,55.138Z" transform="translate(-26.08 -42.599)"/>
      <path id="Path_3" data-name="Path 3" class="cls-2" d="M96.032,59.1h3.545c0,1.211,0,2.378.043,3.589,1.211,0,2.378,0,3.589.043v3.545H99.62c0,1.211,0,2.378-.043,3.589H96.032c0-1.211,0-2.378-.043-3.589-1.211,0-2.378,0-3.589-.043V62.689c1.211,0,2.378,0,3.589-.043C95.989,61.521,95.989,60.311,96.032,59.1Z" transform="translate(-63.726 -51.966)"/>
    </g>
  </g>
</svg>
