<?xml version="1.0" encoding="utf-8"?>
<!-- Generator: Adobe Illustrator 22.0.1, SVG Export Plug-In . SVG Version: 6.00 Build 0)  -->
<svg version="1.1" id="Layer_1" xmlns="http://www.w3.org/2000/svg" xmlns:xlink="http://www.w3.org/1999/xlink" x="0px" y="0px"
	 viewBox="0 0 124.8 38.6" style="enable-background:new 0 0 124.8 38.6;" xml:space="preserve">
<style type="text/css">
	.st0{fill:#F7E60F;}
	.st1{enable-background:new    ;}
	.st2{fill:#234491;}
</style>
<g id="giris_yap_button" transform="translate(934.024 1261.705)">
	<path id="Rectangle_11" class="st0" d="M-915-1261.7h86.8c10.5,0,19,8.5,19,19v0.6c0,10.5-8.5,19-19,19H-915c-10.5,0-19-8.5-19-19
		v-0.6C-934-1253.2-925.5-1261.7-915-1261.7z"/>
	<g class="st1">
		<path class="st2" d="M-893.4-1245.5l-1.4,1.4c-0.4-0.5-1-0.7-1.8-0.7c-1.3,0-2.3,1-2.3,2.5c0,1.6,1.1,2.5,2.3,2.5
			c1.2,0,1.9-0.5,2.1-1.5h-2v-1.5h4c0,0.2,0,0.4,0,0.6c0,2.7-1.9,4.3-4.1,4.3c-2.5,0-4.4-1.7-4.4-4.3c0-2.5,1.9-4.4,4.5-4.4
			C-895.2-1246.8-894.1-1246.3-893.4-1245.5z"/>
		<path class="st2" d="M-889.2-1248.2c0,0.7-0.5,1.2-1.2,1.2s-1.2-0.5-1.2-1.2c0-0.7,0.5-1.2,1.2-1.2S-889.2-1248.9-889.2-1248.2z
			 M-889.2-1238.2h-2v-8.4h2V-1238.2z"/>
		<path class="st2" d="M-884-1246.6c2.1,0,3.2,1,3.2,2.7c0,1.3-0.8,2.3-2.3,2.5l2.4,3.2h-2.4l-2.2-3.1h-0.3v3.1h-2v-8.4H-884z
			 M-885.7-1244.8v1.8h1.6c0.7,0,1.2-0.3,1.2-0.9c0-0.6-0.5-0.9-1.2-0.9H-885.7z"/>
		<path class="st2" d="M-877.5-1248.2c0,0.7-0.5,1.2-1.2,1.2s-1.2-0.5-1.2-1.2c0-0.7,0.5-1.2,1.2-1.2S-877.5-1248.9-877.5-1248.2z
			 M-877.5-1238.2h-2v-8.4h2V-1238.2z"/>
		<path class="st2" d="M-870.1-1244.2c-0.6-0.4-1.4-0.7-2.4-0.7c-0.8,0-1.3,0.3-1.3,0.8c0,0.5,0.8,0.7,1.7,0.8l0.3,0.1
			c1.6,0.3,2.7,1,2.7,2.4c0,1.6-1.2,2.5-2.6,2.7l-0.6,1.9h-1.8l0.6-1.8c-1.1-0.1-2.1-0.5-2.9-1l1-1.6c0.6,0.4,1.5,0.9,2.7,0.9
			c0.8,0,1.3-0.3,1.3-0.8c0-0.5-0.6-0.6-1.7-0.8l-0.4-0.1c-1.7-0.3-2.7-1-2.6-2.6c0-1.6,1.4-2.7,3.4-2.7c1.1,0,2.1,0.2,3.4,0.9
			L-870.1-1244.2z"/>
		<path class="st2" d="M-860.9-1241.4v3.2h-2v-3.2l-3.2-5.2h2.3l1.9,3.4l1.9-3.4h2.3L-860.9-1241.4z"/>
		<path class="st2" d="M-849.8-1238.2h-2.1l-0.6-1.8h-3.3l-0.6,1.8h-2.1l3.2-8.4h2.4L-849.8-1238.2z M-855.3-1241.8h2l-1-2.8
			L-855.3-1241.8z"/>
		<path class="st2" d="M-847-1241v2.8h-2v-8.4h3.6c2.1,0,3.2,1.1,3.2,2.8c0,1.7-1.1,2.8-3.2,2.8H-847z M-847-1244.8v2h1.6
			c0.7,0,1.2-0.3,1.2-1c0-0.6-0.4-1-1.2-1H-847z"/>
	</g>
</g>
</svg>
