<svg xmlns="http://www.w3.org/2000/svg" xmlns:xlink="http://www.w3.org/1999/xlink" viewBox="4132 316 40 40">
  <defs>
    <style>
      .cls-1 {
        fill: #f7e60f;
      }

      .cls-2 {
        fill: url(#linear-gradient);
      }
    </style>
    <linearGradient id="linear-gradient" x1="0.212" y1="0.267" x2="0.817" y2="0.742" gradientUnits="objectBoundingBox">
      <stop offset="0" stop-color="#234491"/>
      <stop offset="1" stop-color="#2b8b56"/>
    </linearGradient>
  </defs>
  <g id="ilan_detaylari_icon" transform="translate(3980 -35)">
    <ellipse id="Ellipse_36" data-name="Ellipse 36" class="cls-1" cx="20" cy="20" rx="20" ry="20" transform="translate(152 351)"/>
    <path id="Path_140" data-name="Path 140" class="cls-2" d="M23.951,5.352l-3-3a.572.572,0,0,0-.7-.085l-1.563.948a11.316,11.316,0,0,0-2.428-1.008L15.827.433A.575.575,0,0,0,15.272,0H11.03a.569.569,0,0,0-.552.433l-.436,1.773A11.316,11.316,0,0,0,7.615,3.214L6.052,2.266a.568.568,0,0,0-.7.085l-3,3a.572.572,0,0,0-.085.7l.948,1.563A11.316,11.316,0,0,0,2.206,10.04l-1.773.436A.575.575,0,0,0,0,11.03v4.241a.569.569,0,0,0,.433.552l1.773.436a11.316,11.316,0,0,0,1.008,2.428L2.266,20.25a.568.568,0,0,0,.085.7l3,3a.572.572,0,0,0,.7.085l1.563-.948A11.316,11.316,0,0,0,10.04,24.1l.436,1.773a.569.569,0,0,0,.552.433h4.241a.569.569,0,0,0,.552-.433l.436-1.773a11.316,11.316,0,0,0,2.428-1.008l1.563.948a.568.568,0,0,0,.7-.085l3.006-3a.572.572,0,0,0,.085-.7l-.948-1.563A11.316,11.316,0,0,0,24.1,16.262l1.773-.436a.569.569,0,0,0,.433-.552V11.033a.569.569,0,0,0-.433-.552L24.1,10.045a11.316,11.316,0,0,0-1.008-2.428l.948-1.563A.58.58,0,0,0,23.951,5.352Zm-10.8,13.735a5.935,5.935,0,1,1,5.935-5.935A5.935,5.935,0,0,1,13.151,19.086Z" transform="translate(159 358)"/>
  </g>
</svg>
