<svg xmlns="http://www.w3.org/2000/svg" xmlns:xlink="http://www.w3.org/1999/xlink" viewBox="4132.455 173.878 40 40">
  <defs>
    <style>
      .cls-1 {
        fill: #f7e60f;
      }

      .cls-2 {
        fill: url(#linear-gradient);
      }
    </style>
    <linearGradient id="linear-gradient" x1="0.5" x2="0.5" y2="1" gradientUnits="objectBoundingBox">
      <stop offset="0" stop-color="#234491"/>
      <stop offset="1" stop-color="#2b8b56"/>
    </linearGradient>
  </defs>
  <g id="ilan_linki_icon" transform="translate(3980 -29)">
    <ellipse id="Ellipse_36" data-name="Ellipse 36" class="cls-1" cx="20" cy="20" rx="20" ry="20" transform="translate(152.455 202.878)"/>
    <path id="link" class="cls-2" d="M23.927,11.638l-4.88,4.88a6.893,6.893,0,0,1-9.754,0,6.621,6.621,0,0,1-1.047-1.393l2.269-2.269a1.6,1.6,0,0,1,.37-.245,3.425,3.425,0,0,0,5.733,1.462l4.88-4.88a3.451,3.451,0,1,0-4.88-4.88L14.883,6.047a8.687,8.687,0,0,0-4.4-.478l3.7-3.7a6.9,6.9,0,1,1,9.749,9.766Zm-12.9,8.02L9.292,21.392a3.451,3.451,0,0,1-4.88-4.88l4.88-4.88a3.425,3.425,0,0,1,5.733,1.462,1.736,1.736,0,0,0,.37-.245l2.269-2.264a6.98,6.98,0,0,0-1.047-1.393,6.893,6.893,0,0,0-9.754,0L1.972,14.078a6.9,6.9,0,0,0,9.754,9.76l3.7-3.7A8.73,8.73,0,0,1,11.027,19.658Z" transform="translate(160.05 210.15)"/>
  </g>
</svg>
