<svg id="Layer_1" data-name="Layer 1" xmlns="http://www.w3.org/2000/svg" viewBox="0 0 250 250"><defs><style>.cls-1{fill:#f7e60f;}</style></defs><title>location_iconArtboard 1</title><g id="kategoriler_icon" data-name="kategoriler icon"><g id="Group_4" data-name="Group 4"><path id="Path_1" data-name="Path 1" class="cls-1" d="M4.05,73.43,121.73,132a7.24,7.24,0,0,0,6.54,0l117.67-58.6a7.31,7.31,0,0,0,3.28-9.8,7.23,7.23,0,0,0-3.28-3.28L128.27.77a7.31,7.31,0,0,0-6.54,0L4.05,60.35a7.31,7.31,0,0,0,0,13.08Z"/><path id="Path_2" data-name="Path 2" class="cls-1" d="M245.94,177.54,216.33,163l-81.54,40.77a22.14,22.14,0,0,1-19.63,0L33.16,163,4.05,177.54a7.31,7.31,0,0,0,0,13.08l117.68,58.6a7.24,7.24,0,0,0,6.54,0L246,190.62a7.31,7.31,0,0,0,0-13.08Z"/><path id="Path_3" data-name="Path 3" class="cls-1" d="M245.94,118.94l-29.61-14.55-81.54,40.77a22.14,22.14,0,0,1-19.63,0l-82-40.77L4.05,118.94a7.31,7.31,0,0,0,0,13.08l117.68,58.6a7.24,7.24,0,0,0,6.54,0L246,132a7.31,7.31,0,0,0,0-13.08Z"/></g></g></svg>