<svg xmlns="http://www.w3.org/2000/svg" xmlns:xlink="http://www.w3.org/1999/xlink" viewBox="4963 502 40 40">
  <defs>
    <style>
      .cls-1 {
        fill: #f7e60f;
      }

      .cls-2 {
        fill: url(#linear-gradient);
      }
    </style>
    <linearGradient id="linear-gradient" x1="0.178" y1="0.213" x2="0.782" y2="0.777" gradientUnits="objectBoundingBox">
      <stop offset="0" stop-color="#234491"/>
      <stop offset="1" stop-color="#2b8b56"/>
    </linearGradient>
  </defs>
  <g id="kategori_icon" transform="translate(3730.455 490.878)">
    <ellipse id="Ellipse_36" data-name="Ellipse 36" class="cls-1" cx="20" cy="20" rx="20" ry="20" transform="translate(1232.545 11.122)"/>
    <path id="kategori" class="cls-2" d="M-4126.21-1017.581l-11.629-5.791a.718.718,0,0,1-.4-.646.72.72,0,0,1,.4-.647l2.875-1.438,8.108,4.03a2.19,2.19,0,0,0,.97.227,2.191,2.191,0,0,0,.97-.227l8.059-4.03,2.925,1.438a.721.721,0,0,1,.4.647.718.718,0,0,1-.4.646l-11.631,5.791a.694.694,0,0,1-.323.077A.7.7,0,0,1-4126.21-1017.581Zm0-5.791-11.629-5.79a.719.719,0,0,1-.4-.647.717.717,0,0,1,.4-.646l2.875-1.438,8.108,4.029a2.176,2.176,0,0,0,.97.227,2.177,2.177,0,0,0,.97-.227l8.059-4.029,2.925,1.438a.718.718,0,0,1,.4.646.72.72,0,0,1-.4.647l-11.631,5.79a.694.694,0,0,1-.323.077A.7.7,0,0,1-4126.21-1023.373Zm0-5.79-11.629-5.791a.72.72,0,0,1-.4-.647.717.717,0,0,1,.4-.646l11.629-5.887a.724.724,0,0,1,.647,0l11.631,5.887a.718.718,0,0,1,.4.646.721.721,0,0,1-.4.647l-11.631,5.791a.694.694,0,0,1-.323.077A.7.7,0,0,1-4126.21-1029.163Z" transform="translate(5378.786 1061.332)"/>
  </g>
</svg>
