<svg xmlns="http://www.w3.org/2000/svg" xmlns:xlink="http://www.w3.org/1999/xlink" viewBox="2791.864 615.362 40 40">
  <defs>
    <style>
      .cls-1 {
        fill: #f7e60f;
      }

      .cls-2 {
        fill: url(#linear-gradient);
      }
    </style>
    <linearGradient id="linear-gradient" x1="0.5" x2="0.5" y2="0.74" gradientUnits="objectBoundingBox">
      <stop offset="0" stop-color="#234491"/>
      <stop offset="1" stop-color="#2b8b56"/>
    </linearGradient>
  </defs>
  <g id="kaydet_icon" transform="translate(2791.864 615.362)">
    <circle id="Ellipse_5" data-name="Ellipse 5" class="cls-1" cx="20" cy="20" r="20"/>
    <path id="kaydet_icon-2" data-name="kaydet_icon" class="cls-2" d="M25.962,7.427,22.489.48A.843.843,0,0,0,21.713,0H4.346A.839.839,0,0,0,3.57.48L.1,7.427a.87.87,0,0,0,.122.961L12.375,22.34a.866.866,0,0,0,.654.3.878.878,0,0,0,.654-.3L25.84,8.388A.87.87,0,0,0,25.962,7.427ZM20.306,1.737,18.089,6.171,14.766,1.737Zm-3.8,5.21H9.556l3.473-4.631Zm-5.21-5.21L7.97,6.171,5.753,1.737ZM4.346,2.808,6.413,6.947H2.279ZM2.783,8.684H7.246L11.53,18.722Zm10.247,9.135-3.9-9.135h7.792Zm1.505.9L18.813,8.684h4.463ZM19.646,6.947l2.067-4.139L23.78,6.947Z" transform="translate(7.128 10.065)"/>
  </g>
</svg>
