<?xml version="1.0" encoding="utf-8"?>
<!-- Generator: Adobe Illustrator 22.0.1, SVG Export Plug-In . SVG Version: 6.00 Build 0)  -->
<svg version="1.1" id="Layer_1" xmlns="http://www.w3.org/2000/svg" xmlns:xlink="http://www.w3.org/1999/xlink" x="0px" y="0px"
	 viewBox="0 0 200.5 62.1" style="enable-background:new 0 0 200.5 62.1;" xml:space="preserve">
<style type="text/css">
	.st0{fill:#F7E60F;}
	.st1{enable-background:new    ;}
	.st2{fill:#234491;}
</style>
<g id="kayit_ol_button" transform="translate(896.024 1186)">
	<path id="Rectangle_11" class="st0" d="M-865-1186h138.5c17.1,0,31,13.9,31,31v0.1c0,17.1-13.9,31-31,31H-865
		c-17.1,0-31-13.9-31-31v-0.1C-896-1172.1-882.1-1186-865-1186z"/>
	<g class="st1">
		<path class="st2" d="M-831.9-1152.9h-1.1v5h-3v-12.6h3v4.9h1.1l3.6-4.9h3.7l-4.9,6.1l5.3,6.5h-3.8L-831.9-1152.9z"/>
		<path class="st2" d="M-810.8-1147.9h-3.2l-1-2.6h-5l-1,2.6h-3.1l4.8-12.6h3.6L-810.8-1147.9z M-819-1153.3h3.1l-1.5-4.3
			L-819-1153.3z"/>
		<path class="st2" d="M-804.4-1152.8v4.9h-3v-4.8l-4.8-7.8h3.5l2.8,5l2.8-5h3.4L-804.4-1152.8z"/>
		<path class="st2" d="M-795.5-1147.9h-3v-12.6h3V-1147.9z"/>
		<path class="st2" d="M-783.6-1157.7h-3.7v9.8h-3v-9.8h-3.7v-2.8h10.5V-1157.7z"/>
		<path class="st2" d="M-765.4-1154.2c0,3.8-2.8,6.5-6.6,6.5c-3.9,0-6.6-2.8-6.6-6.5c0-3.8,2.8-6.5,6.6-6.5
			C-768.2-1160.8-765.4-1158-765.4-1154.2z M-775.6-1154.2c0,2.2,1.5,3.7,3.5,3.7s3.5-1.5,3.5-3.7c0-2.2-1.5-3.7-3.5-3.7
			S-775.6-1156.4-775.6-1154.2z"/>
		<path class="st2" d="M-754.3-1147.9h-9.3v-12.6h3v9.8h6.3V-1147.9z"/>
	</g>
</g>
</svg>
