<svg xmlns="http://www.w3.org/2000/svg" xmlns:xlink="http://www.w3.org/1999/xlink" viewBox="5364 169.878 40 40">
  <defs>
    <style>
      .cls-1 {
        fill: #f7e60f;
      }

      .cls-2 {
        fill: url(#linear-gradient);
      }
    </style>
    <linearGradient id="linear-gradient" x1="0.5" x2="0.5" y2="1" gradientUnits="objectBoundingBox">
      <stop offset="0" stop-color="#234491"/>
      <stop offset="1" stop-color="#2b8b56"/>
    </linearGradient>
  </defs>
  <g id="kupon_kodu_icon" transform="translate(4811 -534)">
    <ellipse id="Ellipse_36" data-name="Ellipse 36" class="cls-1" cx="20" cy="20" rx="20" ry="20" transform="translate(553 703.878)"/>
    <path id="Path_151" data-name="Path 151" class="cls-2" d="M22.364,0H6.8V2.025a.675.675,0,1,1-1.35,0V0H.675A.674.674,0,0,0,0,.675v4.05A.674.674,0,0,0,.675,5.4a2.025,2.025,0,1,1,0,4.05A.674.674,0,0,0,0,10.125v4.05a.674.674,0,0,0,.675.675H5.4V12.825a.675.675,0,1,1,1.35,0V14.85H22.364a.674.674,0,0,0,.675-.675V.675A.674.674,0,0,0,22.364,0ZM6.75,10.125a.675.675,0,1,1-1.35,0V8.775a.675.675,0,1,1,1.35,0Zm0-4.05a.675.675,0,1,1-1.35,0V4.725a.675.675,0,1,1,1.35,0Zm4.14-1.35A2.025,2.025,0,1,1,12.915,6.75,2.028,2.028,0,0,1,10.89,4.725Zm1.651,7.312a.675.675,0,0,1-.189-.936l5.4-8.1a.675.675,0,0,1,1.125.747l-5.4,8.1A.677.677,0,0,1,12.541,12.037Zm5.773.112a2.025,2.025,0,1,1,2.025-2.025A2.028,2.028,0,0,1,18.315,12.15Z" transform="matrix(0.777, -0.629, 0.629, 0.777, 559.29, 724.997)"/>
  </g>
</svg>
