<?xml version="1.0" encoding="utf-8"?>
<!-- Generator: Adobe Illustrator 22.0.1, SVG Export Plug-In . SVG Version: 6.00 Build 0)  -->
<svg version="1.1" id="Layer_1" xmlns="http://www.w3.org/2000/svg" xmlns:xlink="http://www.w3.org/1999/xlink" x="0px" y="0px"
	 viewBox="0 0 432 18" style="enable-background:new 0 0 432 18;" xml:space="preserve">
<style type="text/css">
	.st0{enable-background:new    ;}
	.st1{fill:#234491;}
</style>
<g class="st0">
	<g>
		<path class="st1" d="M113.8,10.4V14h-2V4.2h4c2.3,0,3.6,1.2,3.6,3.1c0,1.9-1.2,3.1-3.6,3.1H113.8z M113.8,6v2.6h2
			c1.1,0,1.6-0.4,1.6-1.3c0-0.9-0.6-1.3-1.6-1.3H113.8z"/>
	</g>
	<g>
		<path class="st1" d="M125.9,4.2c2.3,0,3.6,1.1,3.6,3c0,1.6-1.1,2.7-3,2.9l3,3.9h-2.4l-2.9-3.9h-0.6V14h-2V4.2H125.9z M123.8,6v2.4
			h2.2c1.1,0,1.6-0.4,1.6-1.2c0-0.8-0.6-1.2-1.6-1.2H123.8z"/>
	</g>
	<g>
		<path class="st1" d="M141.8,9.1c0,2.9-2.1,5.1-5.2,5.1s-5.1-2.2-5.1-5.1s2.1-5.1,5.1-5.1S141.8,6.2,141.8,9.1z M133.5,9.1
			c0,1.9,1.3,3.2,3.1,3.2c1.8,0,3.1-1.3,3.1-3.2c0-1.9-1.3-3.2-3.1-3.2C134.8,5.9,133.5,7.2,133.5,9.1z"/>
	</g>
	<g>
		<path class="st1" d="M148.2,4.2c2.3,0,3.7,0.8,3.7,2.7c0,1-0.6,1.8-1.4,2.1c0.9,0.3,1.6,1.1,1.6,2.2c0,1.9-1.3,2.8-3.7,2.8h-4.2
			V4.2H148.2z M146.2,5.9v2.3h2c1,0,1.7-0.2,1.7-1.2c0-0.9-0.8-1.1-1.7-1.1H146.2z M146.2,9.9v2.4l2.2,0c1.1,0,1.8-0.3,1.8-1.2
			c0-0.9-0.7-1.2-1.8-1.2H146.2z"/>
	</g>
	<g>
		<path class="st1" d="M161.7,14h-7.1V4.2h2v8h5.2V14z"/>
	</g>
	<g>
		<path class="st1" d="M171,14h-7.3V4.2h7.3V6h-5.3v2.2h5.1V10h-5.1v2.3h5.4V14z"/>
	</g>
	<g>
		<path class="st1" d="M184.5,14h-2V6.6l-2.4,6.5H178l-2.4-6.4V14h-2V4.2h2.9l2.5,6.6l2.5-6.6h2.9V14z"/>
	</g>
	<g>
		<path class="st1" d="M194.5,14h-7.1V4.2h2v8h5.2V14z"/>
	</g>
	<g>
		<path class="st1" d="M198.7,2.1c0,0.7-0.5,1.2-1.2,1.2s-1.2-0.5-1.2-1.2c0-0.7,0.5-1.2,1.2-1.2S198.7,1.4,198.7,2.1z M198.4,14h-2
			V4.2h2V14z"/>
	</g>
	<g>
		<path class="st1" d="M209.4,4.2c2.3,0,3.7,0.8,3.7,2.7c0,1-0.6,1.8-1.4,2.1c0.9,0.3,1.6,1.1,1.6,2.2c0,1.9-1.3,2.8-3.7,2.8h-4.2
			V4.2H209.4z M207.4,5.9v2.3h2c1,0,1.7-0.2,1.7-1.2c0-0.9-0.8-1.1-1.7-1.1H207.4z M207.4,9.9v2.4l2.2,0c1.1,0,1.8-0.3,1.8-1.2
			c0-0.9-0.7-1.2-1.8-1.2H207.4z"/>
	</g>
	<g>
		<path class="st1" d="M218,2.1c0,0.7-0.5,1.2-1.2,1.2s-1.2-0.5-1.2-1.2c0-0.7,0.5-1.2,1.2-1.2S218,1.4,218,2.1z M217.7,14h-2V4.2h2
			V14z"/>
	</g>
	<g>
		<path class="st1" d="M224.8,4.2c2.3,0,3.6,1.1,3.6,3c0,1.6-1.1,2.7-3,2.9l3,3.9H226l-2.9-3.9h-0.6V14h-2V4.2H224.8z M222.6,6v2.4
			h2.2c1.1,0,1.6-0.4,1.6-1.2c0-0.8-0.6-1.2-1.6-1.2H222.6z"/>
	</g>
	<g>
		<path class="st1" d="M241.8,10h-4.9v4h-2V4.2h7.2V6h-5.2v2.2h4.9V10z"/>
	</g>
	<g>
		<path class="st1" d="M246.5,14h-2V4.2h2V14z"/>
	</g>
	<g>
		<path class="st1" d="M253.5,4.2c2.3,0,3.6,1.1,3.6,3c0,1.6-1.1,2.7-3,2.9l3,3.9h-2.4l-2.9-3.9h-0.6V14h-2V4.2H253.5z M251.3,6v2.4
			h2.2c1.1,0,1.6-0.4,1.6-1.2c0-0.8-0.6-1.2-1.6-1.2H251.3z"/>
	</g>
	<g>
		<path class="st1" d="M266.2,6.7c-0.8-0.5-1.7-0.8-2.8-0.8c-1.1,0-1.9,0.4-1.9,1.2c0,0.7,0.8,0.9,2,1.1l0.6,0.1
			c1.8,0.3,3.1,1,3.1,2.7c0,2.2-1.9,3.2-4,3.2c-1.5,0-3.1-0.4-4.1-1.3l1-1.6c0.7,0.6,1.9,1.1,3.1,1.1c1.1,0,1.9-0.4,1.9-1.2
			c0-0.7-0.7-0.9-2.1-1.1l-0.6-0.1c-1.7-0.3-3-1-3-2.8c0-2,1.8-3.1,3.9-3.1c1.4,0,2.5,0.3,3.7,1L266.2,6.7z"/>
	</g>
	<g>
		<path class="st1" d="M278.5,14h-2.1l-0.9-2.3h-4.2l-0.9,2.3h-2l3.8-9.8h2.4L278.5,14z M272,9.9h2.8l-1.4-3.8L272,9.9z"/>
	</g>
	<g>
		<path class="st1" d="M286.7,6h-3v8h-2V6h-3V4.2h8V6z"/>
	</g>
	<g>
		<path class="st1" d="M303.4,14h-2V6.6l-2.4,6.5H297l-2.4-6.4V14h-2V4.2h2.9l2.5,6.6l2.5-6.6h2.9V14z"/>
	</g>
	<g>
		<path class="st1" d="M308.2,14h-2V4.2h2V14z"/>
	</g>
	<g>
		<path class="st1" d="M315.3,10.7V8.3h0.7c1.4,0,2.1-0.4,2.1-1.2c0-0.8-0.7-1.2-2.1-1.2c-0.4,0-0.8,0-1.1,0.1l-0.1-1.8
			c0.4-0.1,0.9-0.1,1.4-0.1c2.4,0,3.9,1.1,3.9,2.9c0,1.6-1.1,2.7-3,3l-0.1,0.8H315.3z M317.5,12.8c0,0.7-0.6,1.3-1.3,1.3
			c-0.7,0-1.3-0.6-1.3-1.3c0-0.7,0.6-1.3,1.3-1.3C316.9,11.5,317.5,12.1,317.5,12.8z"/>
	</g>
</g>
<g id="Line_34">
	<rect y="7.5" class="st1" width="100" height="2"/>
</g>
<g id="Path_186">
	<rect x="332" y="7.5" class="st1" width="100" height="2"/>
</g>
</svg>
