<svg xmlns="http://www.w3.org/2000/svg" viewBox="1720.65 27.74 34.233 34.233">
  <defs>
    <style>
      .cls-1 {
        fill: #f7e60f;
      }
    </style>
  </defs>
  <path id="profilim_icon" class="cls-1" d="M34.233,17.117A17.117,17.117,0,0,0,0,17.117a17.261,17.261,0,0,0,5.524,12.6h0l.545.467.078.078.934.7c.078.078.233.156.311.233a7.1,7.1,0,0,0,1.011.622c.078.078.156.078.233.156.389.233.778.389,1.167.622a.076.076,0,0,1,.078.078A19.588,19.588,0,0,0,14,34h.078a8.573,8.573,0,0,0,1.4.156h.156c.467,0,.934.078,1.4.078a8.456,8.456,0,0,0,1.4-.078h.156c.467-.078.934-.078,1.323-.156h.156a17.465,17.465,0,0,0,4.046-1.245c.078,0,.078-.078.156-.078a8.5,8.5,0,0,0,1.167-.622c.078-.078.156-.078.311-.156.311-.233.7-.389,1.011-.622.078-.078.233-.156.311-.233a3.046,3.046,0,0,0,.778-.622c.078-.078.156-.078.156-.156l.545-.467h0a17.125,17.125,0,0,0,5.68-12.682Zm-32.988,0a15.872,15.872,0,1,1,31.743,0A15.7,15.7,0,0,1,27.62,28.943a1.95,1.95,0,0,0-.545-.311l-5.291-2.645a1.386,1.386,0,0,1-.778-1.245V22.874a3.294,3.294,0,0,0,.389-.545,11.238,11.238,0,0,0,1.634-3.19,2.317,2.317,0,0,0,1.323-2.023V14.938a2.456,2.456,0,0,0-.545-1.478V10.581a5.152,5.152,0,0,0-1.167-3.657C21.474,5.6,19.606,4.979,17.117,4.979a7.314,7.314,0,0,0-5.524,1.945,5.152,5.152,0,0,0-1.167,3.657V13.46a2.054,2.054,0,0,0-.545,1.478v2.178a2.326,2.326,0,0,0,.856,1.789,10.73,10.73,0,0,0,1.945,3.968v1.789a1.473,1.473,0,0,1-.7,1.245L7,28.631a1.628,1.628,0,0,0-.467.311A15.884,15.884,0,0,1,1.245,17.117Zm0,0" transform="translate(1720.65 27.74)"/>
</svg>
