<svg id="search_box" xmlns="http://www.w3.org/2000/svg" xmlns:xlink="http://www.w3.org/1999/xlink" viewBox="1383 35 272 41">
  <defs>
    <style>
      .cls-1, .cls-5 {
        fill: none;
      }

      .cls-1 {
        stroke: #f7e60f;
        stroke-width: 2px;
      }

      .cls-2 {
        fill: #f7e60f;
      }

      .cls-3 {
        fill: url(#linear-gradient);
      }

      .cls-4 {
        stroke: none;
      }
    </style>
    <linearGradient id="linear-gradient" x1="0.657" y1="0.723" x2="0.309" y2="0.309" gradientUnits="objectBoundingBox">
      <stop offset="0" stop-color="#2b8b56"/>
      <stop offset="1" stop-color="#234491"/>
    </linearGradient>
  </defs>
  <g id="Rectangle_12" data-name="Rectangle 12" class="cls-1" transform="translate(1383 35)">
    <rect class="cls-4" width="272" height="41" rx="20.5"/>
    <rect class="cls-5" x="1" y="1" width="270" height="39" rx="19.5"/>
  </g>
  <path id="Path_32" data-name="Path 32" class="cls-2" d="M20.5,0h29a20.5,20.5,0,0,1,0,41h-29Z" transform="translate(1585 35)"/>
  <path id="Subtraction_10" data-name="Subtraction 10" class="cls-3" d="M3,28.379a2.016,2.016,0,0,1-1.432-.6L.6,26.8a2,2,0,0,1,0-2.864L5.7,18.9a1.919,1.919,0,0,1,1.43-.631,1.943,1.943,0,0,1,.919.231l.974-.974a11.178,11.178,0,0,1-1.711-3.093,10.606,10.606,0,0,1-.637-3.608,10.825,10.825,0,1,1,21.649,0,10.742,10.742,0,0,1-1.839,6.03,10.97,10.97,0,0,1-2.918,2.929,11.1,11.1,0,0,1-6.068,1.923,10.606,10.606,0,0,1-3.608-.637,11.178,11.178,0,0,1-3.093-1.711l-.974.974a2.006,2.006,0,0,1,.215,1.217,1.964,1.964,0,0,1-.558,1.131l-5.04,5.1A2.016,2.016,0,0,1,3,28.379ZM17.41,3.683a7.177,7.177,0,1,0,2.8.566A7.154,7.154,0,0,0,17.41,3.683Z" transform="translate(1614.561 41.675)"/>
</svg>
