<svg xmlns="http://www.w3.org/2000/svg" xmlns:xlink="http://www.w3.org/1999/xlink" viewBox="5454.455 572.878 40 40">
  <defs>
    <style>
      .cls-1 {
        fill: #f7e60f;
      }

      .cls-2 {
        fill: url(#linear-gradient);
      }
    </style>
    <linearGradient id="linear-gradient" x1="0.5" x2="0.5" y2="1" gradientUnits="objectBoundingBox">
      <stop offset="0" stop-color="#234491"/>
      <stop offset="1" stop-color="#2b8b56"/>
    </linearGradient>
  </defs>
  <g id="sehir_icon" transform="translate(4811 -534)">
    <ellipse id="Ellipse_36" data-name="Ellipse 36" class="cls-1" cx="20" cy="20" rx="20" ry="20" transform="translate(643.455 1106.878)"/>
    <path id="Path_141" data-name="Path 141" class="cls-2" d="M9.355,0A9.438,9.438,0,0,0,0,9.355C0,15.733,8.5,25.3,8.717,25.514a.8.8,0,0,0,1.276,0c.425-.425,8.717-9.78,8.717-16.159A9.3,9.3,0,0,0,9.355,0Zm0,14.033a4.678,4.678,0,1,1,4.678-4.678A4.719,4.719,0,0,1,9.355,14.033Z" transform="translate(654.045 1114)"/>
  </g>
</svg>
