<svg id="Layer_2" data-name="Layer 2" xmlns="http://www.w3.org/2000/svg" viewBox="0 0 250 250"><defs><style>.cls-1{fill:#f7e60f;}</style></defs><title>location_iconArtboard 1</title><g id="yeniler_icon" data-name="yeniler icon"><g id="Group_5" data-name="Group 5"><path id="Subtraction_1" data-name="Subtraction 1" class="cls-1" d="M77.69,174.34h0A78.75,78.75,0,0,0,76.12,159a77.44,77.44,0,0,0-4.53-14.58,77.44,77.44,0,0,0-7.16-13.22A78.22,78.22,0,0,0,55,119.69a78.26,78.26,0,0,0-11.49-9.53A77.76,77.76,0,0,0,30.25,103a78,78,0,0,0-14.58-4.56A78.48,78.48,0,0,0,0,96.8v-.41a79.11,79.11,0,0,0,15.57-1.6,77.28,77.28,0,0,0,14.5-4.49,77.82,77.82,0,0,0,13.14-7.1,78.51,78.51,0,0,0,11.46-9.43,78.35,78.35,0,0,0,9.49-11.39,78.79,78.79,0,0,0,7.2-13.07A78,78,0,0,0,76,34.85a78,78,0,0,0,1.72-15.53h0A77.45,77.45,0,0,0,91.23,62.38a78.43,78.43,0,0,0,9.49,11.4,77.19,77.19,0,0,0,39.11,21,78.18,78.18,0,0,0,15.56,1.6v.42a78.45,78.45,0,0,0-15.66,1.61A77.91,77.91,0,0,0,79.28,159,78.89,78.89,0,0,0,77.69,174.34Z"/><path id="Subtraction_5" data-name="Subtraction 5" class="cls-1" d="M126.32,230.68h0a31.45,31.45,0,0,0-2.46-12,31.78,31.78,0,0,0-2.88-5.32,31.34,31.34,0,0,0-3.82-4.63,31.3,31.3,0,0,0-15.81-8.57,31.65,31.65,0,0,0-6.29-.63v-.17a31.36,31.36,0,0,0,6.26-.64,30.87,30.87,0,0,0,5.84-1.82,30.26,30.26,0,0,0,5.28-2.86,31.62,31.62,0,0,0,4.62-3.78,31.93,31.93,0,0,0,6.69-9.84,31.39,31.39,0,0,0,2.56-12.07h0a31.79,31.79,0,0,0,2.56,12.06,31.33,31.33,0,0,0,6.72,9.84,31.25,31.25,0,0,0,15.74,8.46,32.15,32.15,0,0,0,6.27.65v.16a32.64,32.64,0,0,0-6.31.65,31.47,31.47,0,0,0-22.52,18.52,30.8,30.8,0,0,0-1.82,5.88A31.77,31.77,0,0,0,126.32,230.68Z"/><path id="Subtraction_9" data-name="Subtraction 9" class="cls-1" d="M191.8,186.92h0a59.76,59.76,0,0,0-1.18-11.47,58.39,58.39,0,0,0-3.37-10.94,57.78,57.78,0,0,0-5.37-9.9,58.4,58.4,0,0,0-48.28-25.77v-.31a59.3,59.3,0,0,0,11.66-1.19,58.41,58.41,0,0,0,45.25-44.9A59.2,59.2,0,0,0,191.8,70.8h0a59.19,59.19,0,0,0,1.28,11.64,57.78,57.78,0,0,0,3.46,10.82A58.33,58.33,0,0,0,250,128.52v.31A59.26,59.26,0,0,0,238.27,130a58.46,58.46,0,0,0-41.89,34.46A57.41,57.41,0,0,0,193,175.44,58.36,58.36,0,0,0,191.8,186.92Z"/></g></g></svg>