<svg xmlns="http://www.w3.org/2000/svg" viewBox="2151 1874 36.85 35">
  <defs>
    <style>
      .cls-1 {
        fill: #f7e60f;
      }
    </style>
  </defs>
  <path id="yorumlar_icon" class="cls-1" d="M36.7,34c-1.4-1.4-2.4-4.4-2.8-8.4a15.332,15.332,0,0,0,2.9-9C36.8,7.4,28.6,0,18.4,0S0,7.4,0,16.6,8.3,33.2,18.4,33.2a19.313,19.313,0,0,0,7.5-1.5c4.1,2.4,10,3.2,10.2,3.3h.1a.55.55,0,0,0,.5-.3A.483.483,0,0,0,36.7,34ZM8.7,20a3.8,3.8,0,1,1,3.9-3.8A3.952,3.952,0,0,1,8.7,20Zm9.8,0a3.8,3.8,0,1,1,3.8-3.8A3.933,3.933,0,0,1,18.5,20Zm9.7,0A3.8,3.8,0,1,1,32,16.2,3.933,3.933,0,0,1,28.2,20Z" transform="translate(2151 1874)"/>
</svg>
