<svg xmlns="http://www.w3.org/2000/svg" viewBox="989.908 338.625 37.529 33.938">
  <defs>
    <style>
      .cls-1 {
        fill: #f7e60f;
      }
    </style>
  </defs>
  <path id="aile_cocuk_icon" class="cls-1" d="M-798.5-251.2a.6.6,0,0,0-.111-.056,2.772,2.772,0,0,1-2.1.64,2.584,2.584,0,0,1-2.289-2.3c-.047-1.641-.037-3.272-.037-4.913-.009-1.224,0-2.447,0-3.671a3.909,3.909,0,0,0-.028-.417h-.732a.915.915,0,0,1-1.038-1.038c-.009-.992,0-1.984,0-2.966,0-1.919-.009-3.838,0-5.757a3.841,3.841,0,0,1,3.078-3.81,5.775,5.775,0,0,1,.983-.093q2.364-.014,4.728,0a3.788,3.788,0,0,1,3.838,2.5,15,15,0,0,1,.473,2.364,18.152,18.152,0,0,0,.714,3.578,5.661,5.661,0,0,0,5.089,3.476,5.381,5.381,0,0,0,5.089-3.244,7.575,7.575,0,0,0,.491-2.355c.111-1.094.2-2.188.371-3.272a3.63,3.63,0,0,1,3.374-2.994c1.928-.056,3.866-.083,5.785-.009a3.736,3.736,0,0,1,3.42,3.189,1.227,1.227,0,0,0,.074.241c.019,3.152.019,6.3.019,9.455a1.106,1.106,0,0,1-1.233.732c-.612-.028-.584-.12-.584.584,0,.668.009,1.344.018,2.012a.893.893,0,0,1-.945.973c-.362.009-.732,0-1.159,0v6.711c0,.575-.269.927-.723.992a.858.858,0,0,1-1.02-.945c-.009-1.112,0-2.225,0-3.337v-3.041c0-.111-.009-.213-.018-.352h-1.233v6.517a3.374,3.374,0,0,1-.018.436.8.8,0,0,1-.769.741.791.791,0,0,1-.9-.667,3.034,3.034,0,0,1-.047-.584v-6.47h-1c-.751-.009-1.066-.334-1.066-1.075,0-1.1-.009-2.2,0-3.3a.871.871,0,0,1,1.214-.871.9.9,0,0,1,.519.927v2.549h5.377c.009-.13.028-.26.028-.389,0-.686-.009-1.372,0-2.058,0-.8.325-1.112,1.112-1.112.7,0,.7,0,.7-.7v-7.184a2.1,2.1,0,0,0-1.594-2.216,2.447,2.447,0,0,0-.575-.074c-1.65-.009-3.3-.028-4.95.009a2.137,2.137,0,0,0-2.2,2.141c-.111,1.214-.223,2.429-.371,3.643a7.052,7.052,0,0,1-6.081,6.063,7.362,7.362,0,0,1-8.157-5.544c-.315-1.261-.417-2.577-.63-3.865a5.865,5.865,0,0,0-.278-1.205,1.817,1.817,0,0,0-1.687-1.2c-1.817-.037-3.643-.056-5.46-.009a2,2,0,0,0-2.03,2.113c-.028,2.577-.009,5.154-.009,7.741,0,.213.065.315.3.3.13-.009.269,0,.4,0,.788.009,1.1.315,1.1,1.121.009,1.446,0,2.883,0,4.329v4.8a.939.939,0,0,0,.686,1.038.876.876,0,0,0,1.112-.843c.018-.658.009-1.316.009-1.984v-7.332c0-.649.213-.983.7-1.094a.847.847,0,0,1,1.029.7,3.544,3.544,0,0,1,.028.547v8.51a6.469,6.469,0,0,0,.046.732.844.844,0,0,0,.807.8.86.86,0,0,0,.945-.686,2.359,2.359,0,0,0,.037-.51V-262.6c.009-.649.334-1.047.871-1.047s.862.389.862,1.047q0,4.6.009,9.205a2.6,2.6,0,0,1-1.492,2.531,2.718,2.718,0,0,1-1.185.288A2.713,2.713,0,0,1-798.5-251.2Zm11.151.574a.83.83,0,0,1-.8-.881c-.018-.389-.009-.778-.009-1.168,0-.76-.037-1.521.019-2.271a2.336,2.336,0,0,0-.677-1.946,3.594,3.594,0,0,1-.788-3.124.782.782,0,0,1,.844-.649.8.8,0,0,1,.816.7c.046.334.046.686.074,1.019a2.038,2.038,0,0,0,2.039,1.826,2.051,2.051,0,0,0,2.1-1.761c.037-.306.037-.612.055-.909a.829.829,0,0,1,.807-.871.8.8,0,0,1,.9.76,3.9,3.9,0,0,1-1.2,3.485.747.747,0,0,0-.269.593c.009,1.409.009,2.809,0,4.218,0,.7-.371,1.038-.983.974a.768.768,0,0,1-.7-.64,2.312,2.312,0,0,1-.056-.51c-.009-1.066,0-2.123-.009-3.189v-.417c-.408.018-.779.018-1.2.018v3.532a3.294,3.294,0,0,1-.019.436.822.822,0,0,1-.856.781Zm1.53-14.887a2.926,2.926,0,0,1-2.92-2.948,2.952,2.952,0,0,1,2.929-2.948,2.959,2.959,0,0,1,2.957,2.957,2.934,2.934,0,0,1-2.949,2.939Zm.018-4.153a1.2,1.2,0,0,0-1.2,1.223,1.185,1.185,0,0,0,1.223,1.186,1.183,1.183,0,0,0,1.177-1.2,1.2,1.2,0,0,0-1.188-1.214Zm8.371-10.957a3.839,3.839,0,0,1,3.838-3.893,3.822,3.822,0,0,1,3.856,3.819,3.867,3.867,0,0,1-3.81,3.884h-.033A3.886,3.886,0,0,1-777.429-280.623Zm3.847-2.141a2.093,2.093,0,0,0-2.095,2.1,2.141,2.141,0,0,0,2.1,2.113,2.119,2.119,0,0,0,2.1-2.132,2.073,2.073,0,0,0-2.087-2.077Zm-25.057,5.942a3.854,3.854,0,0,1-3.81-3.875,3.826,3.826,0,0,1,3.847-3.819,3.843,3.843,0,0,1,3.838,3.884,3.872,3.872,0,0,1-3.841,3.81Zm-2.067-3.865a2.1,2.1,0,0,0,2.067,2.123,2.128,2.128,0,0,0,2.132-2.114,2.107,2.107,0,0,0-2.1-2.1A2.073,2.073,0,0,0-800.706-280.688Z" transform="translate(1794.752 623.142)"/>
</svg>
