<svg xmlns="http://www.w3.org/2000/svg" viewBox="988.586 390 40.25 35">
  <defs>
    <style>
      .cls-1 {
        fill: #f7e60f;
      }
    </style>
  </defs>
  <path id="aksesuar_icon" class="cls-1" d="M39.27,18.375,31.045,3.57a3.937,3.937,0,0,0-7.858.367h2.625a1.313,1.313,0,0,1,2.625,0v.341l7.831,14.1H24.5a3.066,3.066,0,0,0-3.063,3.063V22.1a3.9,3.9,0,0,0-2.625,0v-.665a3.066,3.066,0,0,0-3.062-3.062H3.981l7.831-14.1V3.937a1.313,1.313,0,0,1,2.625,0h2.625A3.937,3.937,0,0,0,9.2,3.57L.98,18.375H0V21a.433.433,0,0,1,.437.438v4.375a9.187,9.187,0,1,0,18.375,0,1.313,1.313,0,0,1,2.625,0,9.187,9.187,0,1,0,18.375,0V21.437A.433.433,0,0,1,40.25,21V18.375Zm-24.395,8.75H12.25v-1.75a.433.433,0,0,0-.438-.437h-1.75V22.313h1.75a3.066,3.066,0,0,1,3.063,3.062Zm21,0H33.25v-1.75a.433.433,0,0,0-.437-.437h-1.75V22.313h1.75a3.066,3.066,0,0,1,3.063,3.062Z" transform="translate(988.586 390)"/>
</svg>
