<svg xmlns="http://www.w3.org/2000/svg" viewBox="757 283 35 39.822">
  <defs>
    <style>
      .cls-1 {
        fill: #f7e60f;
      }
    </style>
  </defs>
  <path id="beyaz_esya_icon" class="cls-1" d="M-717-204.178V-244h35v39.822Zm2.334-2.334h30.334v-25.822h-30.334Zm11.589-28.156h18.744v-7h-18.744Zm-11.589,0h9.256V-237h-9.256Zm0-4.667h9.256v-2.334h-9.256Zm4.589,19.989A10.588,10.588,0,0,1-699.5-229.922a10.589,10.589,0,0,1,10.578,10.578A10.589,10.589,0,0,1-699.5-208.767,10.589,10.589,0,0,1-710.078-219.344ZM-699.5-211.1a8.252,8.252,0,0,0,8.229-7.746c-.109.094-.226.21-.35.335a4.2,4.2,0,0,1-3.173,1.5,4.18,4.18,0,0,1-3.173-1.509c-.583-.568-.863-.824-1.532-.824s-.957.248-1.533.824a4.178,4.178,0,0,1-3.173,1.509,4.181,4.181,0,0,1-3.173-1.5c-.131-.132-.24-.241-.349-.335A8.251,8.251,0,0,0-699.5-211.1Zm3.173-9.084c.583.575.863.832,1.532.832s.95-.248,1.533-.824a5.012,5.012,0,0,1,1.742-1.244,8.262,8.262,0,0,0-7.98-6.169,8.262,8.262,0,0,0-7.98,6.169,4.93,4.93,0,0,1,1.742,1.244c.583.568.863.824,1.532.824s.957-.257,1.533-.832a4.2,4.2,0,0,1,3.173-1.5A4.177,4.177,0,0,1-696.326-220.184ZM-689-237v-2.334h2.334V-237Zm-4.667,0v-2.334h2.334V-237Z" transform="translate(1474 527)"/>
</svg>
