<svg xmlns="http://www.w3.org/2000/svg" viewBox="990.434 447.075 39.802 26.085">
  <defs>
    <style>
      .cls-1 {
        fill: #f7e60f;
      }
    </style>
  </defs>
  <path id="bilgisayar_icon" class="cls-1" d="M5.225,26.085C.612,26.085,0,22.872,0,22.836a.247.247,0,0,1,.041-.144A.325.325,0,0,1,.2,22.62H39.557a.222.222,0,0,1,.163.072c.041.072.041.109.082.144-.041.036-.612,3.249-5.225,3.249ZM5.5,19.494a.762.762,0,0,1-.752-.767V.766A.762.762,0,0,1,5.5,0H34.225a.762.762,0,0,1,.752.766V18.727a.762.762,0,0,1-.752.767Zm1.88-2.681H32.345V2.681H7.378Z" transform="translate(990.434 447.075)"/>
</svg>
