<svg xmlns="http://www.w3.org/2000/svg" viewBox="763 337.274 23 37.29">
  <defs>
    <style>
      .cls-1 {
        fill: #f7e60f;
      }
    </style>
  </defs>
  <path id="ceptelefonu_icon" class="cls-1" d="M20.033,0H2.968A2.812,2.812,0,0,0,0,2.712V34.578A2.925,2.925,0,0,0,2.968,37.29H20.033A2.812,2.812,0,0,0,23,34.578V2.712A2.812,2.812,0,0,0,20.033,0ZM7.234,1.695h8.532c.185,0,.371.339.371.678s-.185.678-.371.678H7.234c-.185,0-.371-.339-.371-.678,0-.508.185-.678.371-.678ZM11.5,34.578a1.7,1.7,0,1,1,0-3.39,1.7,1.7,0,1,1,0,3.39Zm9.274-5.932H2.226V4.576H20.775Zm0,0" transform="translate(763 337.274)"/>
</svg>
