<svg xmlns="http://www.w3.org/2000/svg" viewBox="993.699 127.972 25.156 35">
  <defs>
    <style>
      .cls-1 {
        fill: #f7e60f;
      }
    </style>
  </defs>
  <path id="cinden_icon" class="cls-1" d="M-711.13-100.989v-7.171a34.24,34.24,0,0,0,2.016-3.179,33.579,33.579,0,0,0,2.017,3.179v7.171a2.016,2.016,0,0,1-2.017,2.016A2.015,2.015,0,0,1-711.13-100.989Zm-8.662-3.821a2.018,2.018,0,0,1,.13-2.844,26.329,26.329,0,0,0,8.525-19.359v-4.943a2.016,2.016,0,0,1,2.017-2.017,2.016,2.016,0,0,1,2.016,2.017h-.006v4.949a30.338,30.338,0,0,1-9.837,22.326,2.04,2.04,0,0,1-1.361.526A2,2,0,0,1-719.792-104.81Zm18.5.122a30.275,30.275,0,0,1-6.686-8.9A32.885,32.885,0,0,0-706-119.255h.076a26.23,26.23,0,0,0,7.349,11.6,2.01,2.01,0,0,1,.13,2.837,1.987,1.987,0,0,1-1.483.656A2,2,0,0,1-701.294-104.688Zm-4.273-16.618a31.691,31.691,0,0,0,.465-4.027h6.548a2.008,2.008,0,0,1,2.01,2.01,2.01,2.01,0,0,1-2.01,2.017Zm-14.116,0a2.021,2.021,0,0,1-2.017-2.017,2.015,2.015,0,0,1,2.017-2.01h6.44a24.254,24.254,0,0,1-.629,4.027Z" transform="translate(1715.398 261.945)"/>
</svg>
