<svg xmlns="http://www.w3.org/2000/svg" viewBox="991 180 35.753 35">
  <defs>
    <style>
      .cls-1 {
        fill: #f7e60f;
      }
    </style>
  </defs>
  <path id="eglence_icon" class="cls-1" d="M-967.7-156.295a1,1,0,0,1-.215-1.1l9.87-23.561a1.446,1.446,0,0,1,.389-.751l.027-.026c.006,0,.006-.007.013-.007,1.019-.986,2.809.007,4.251.979.288.194.6.416.912.651a16.057,16.057,0,0,0,2.93-9.884A1,1,0,0,1-948.515-191a1,1,0,0,1,1.006,1.005,20.271,20.271,0,0,1-1.328,7.5,15.623,15.623,0,0,1-2.039,3.627c.986.825,1.992,1.757,2.984,2.756.952.952,1.844,1.911,2.641,2.857A19.864,19.864,0,0,1-941-174.7a1.009,1.009,0,0,1,1.193.778,1,1,0,0,1-.785,1.187,17.546,17.546,0,0,0-3.366,1.1c.262.349.5.684.717,1a8.928,8.928,0,0,1,1.294,2.515,1.729,1.729,0,0,1-.315,1.737l-.006.006-.021.02-.014.014-.04.04a1.394,1.394,0,0,1-.7.342l-23.561,9.883a.956.956,0,0,1-.389.081A1.007,1.007,0,0,1-967.7-156.295Zm2.588-2.588,1.938-.811a4.245,4.245,0,0,0,.5-1.469,6.584,6.584,0,0,0-.255-2.929Zm3.279-7.838a9.46,9.46,0,0,1,1.126,5.988l1.113-.463a4.047,4.047,0,0,0,1.046-2.239c.241-1.368.141-3.715-1.616-7.268Zm4-9.521-.878,2.092-.443,1.052c2.246,3.956,3.1,7.376,2.561,10.158-.04.181-.08.362-.128.536l.678-.282a13.617,13.617,0,0,0,1.763-4.68,12.257,12.257,0,0,0-1.736-9.166c-.235-.315-.456-.63-.651-.919-.14-.208-.274-.416-.4-.61ZM-952.3-167a17.5,17.5,0,0,1-.9,3.118l2.367-.993a6.391,6.391,0,0,0,1.709-4.445c-.952-.8-1.924-1.7-2.883-2.662l-.188-.187A15.07,15.07,0,0,1-952.3-167Zm4.58.818,1.777-.751c-.194-.121-.4-.255-.61-.4-.235-.155-.476-.329-.731-.517A9.331,9.331,0,0,1-947.717-166.178Zm-7.027-12.022a39.782,39.782,0,0,0,4.151,4.8,38.694,38.694,0,0,0,4.8,4.151,11.879,11.879,0,0,0,1.663,1.025,12.738,12.738,0,0,0-1.026-1.662c-.188-.268-.4-.55-.624-.838l-1.308-1.57c.007,0,.007-.006.013-.006-.69-.791-1.442-1.6-2.233-2.387-.952-.952-1.944-1.865-2.883-2.656l-1.576-1.247c-.121-.087-.235-.175-.342-.248a13.413,13.413,0,0,0-1.663-1.026A12.733,12.733,0,0,0-954.744-178.2Zm16.307,10.66v-.335h-.336a1,1,0,0,1-1.005-1.006,1,1,0,0,1,1.005-1.005h.336v-.336a1,1,0,0,1,1.005-1.005,1,1,0,0,1,1.006,1.005v.336h.335a1.009,1.009,0,0,1,1.006,1.005,1,1,0,0,1-1.006,1.006h-.335v.335a1,1,0,0,1-1.006,1.006A1,1,0,0,1-938.437-167.54Zm-1.228-9.474a2.347,2.347,0,0,1,2.347-2.346,2.346,2.346,0,0,1,2.346,2.346,2.346,2.346,0,0,1-2.346,2.347A2.347,2.347,0,0,1-939.665-177.014Zm-6.39-1.508v-.335h-.335a1,1,0,0,1-1.006-1.006,1.009,1.009,0,0,1,1.006-1.005h.335v-.336a1,1,0,0,1,1.006-1.005,1,1,0,0,1,1.005,1.005v.336h.336a1,1,0,0,1,1.005,1.005,1,1,0,0,1-1.005,1.006h-.336v.335a1,1,0,0,1-1.005,1.006A1,1,0,0,1-946.055-178.522Zm5.988-3.426a1.01,1.01,0,0,1-.006-1.415,11.242,11.242,0,0,1,6.745-2.816,1.006,1.006,0,0,1,1.085.919.993.993,0,0,1-.234.731,1,1,0,0,1-.684.348,9.217,9.217,0,0,0-5.485,2.233,1,1,0,0,1-.711.3A1,1,0,0,1-940.067-181.949Zm-16.628-4.318a2.347,2.347,0,0,1,2.347-2.346A2.346,2.346,0,0,1-952-186.267a2.346,2.346,0,0,1-2.346,2.347A2.347,2.347,0,0,1-956.7-186.267Zm12.84-2.387A2.346,2.346,0,0,1-941.509-191a2.346,2.346,0,0,1,2.347,2.346,2.347,2.347,0,0,1-2.347,2.347A2.347,2.347,0,0,1-943.855-188.654Z" transform="translate(1958.993 371)"/>
</svg>
