<svg xmlns="http://www.w3.org/2000/svg" viewBox="757 233 35 35">
  <defs>
    <style>
      .cls-1 {
        fill: #f7e60f;
      }
    </style>
  </defs>
  <path id="elektronik_icon" class="cls-1" d="M-697.556-270v-3.889h-3.889V-270h-3.889v-3.889h-3.889a3.906,3.906,0,0,1-3.889-3.889v-3.889H-717v-3.889h3.889v-3.889H-717v-3.889h3.889v-3.889a3.906,3.906,0,0,1,3.889-3.889h3.889V-305h3.889v3.889h3.889V-305h3.889v3.889h3.889a3.905,3.905,0,0,1,3.889,3.889v3.889H-682v3.889h-3.889v3.889H-682v3.889h-3.889v3.889a3.905,3.905,0,0,1-3.889,3.889h-3.889V-270Zm-11.667-7.778h19.445v-19.445h-19.445Zm3.889-3.889v-11.667h11.667v11.667Zm3.889-3.889h3.889v-3.889h-3.889Z" transform="translate(1474 538)"/>
</svg>
