<?xml version="1.0" encoding="utf-8"?>
<!-- Generator: Adobe Illustrator 22.0.1, SVG Export Plug-In . SVG Version: 6.00 Build 0)  -->
<svg version="1.1" id="Capa_1" xmlns="http://www.w3.org/2000/svg" xmlns:xlink="http://www.w3.org/1999/xlink" x="0px" y="0px"
	 viewBox="0 0 512 512" style="enable-background:new 0 0 512 512;" xml:space="preserve">
<style type="text/css">
	.st0{fill:#F7E60F;}
</style>
<g>
	<g>
		<path class="st0" d="M271,198.7v-95.7c12.6,5.8,29.2,11,48,11c8,0,16.4-1,25-3.3c51.9-13.9,72.4-65.9,73.2-68.1l3.9-10.2l-8.5-6.9
			c-1.8-1.5-45.5-36.2-97.4-22.3c-28.7,7.7-47.7,27-59.2,43.1C244.5,30.2,225.5,11,196.8,3.3c-51.9-13.9-95.6,20.9-97.4,22.3
			l-8.5,6.9l3.9,10.2c0.8,2.2,21.3,54.2,73.2,68.1c8.6,2.3,17,3.3,25,3.3c18.7,0,35.4-5.3,48-11v95.7H66.4V292h38.4l19.5,220h263.3
			l19.5-220h38.4v-93.3L271,198.7L271,198.7z M323,32.3c24.8-6.6,48.1,3.1,60.8,10.2C376.4,55,361,75.1,336.2,81.7
			c-24.8,6.7-48.2-3.1-60.9-10.3C282.7,58.9,297.9,39,323,32.3z M175.8,81.7C151,75.1,135.6,55,128.2,42.5
			c12.7-7.2,36-16.9,60.8-10.2c24.8,6.6,40.1,26.7,47.6,39.3C223.9,78.7,200.6,88.4,175.8,81.7z M360.2,482H151.8l-16.9-190h242.2
			L360.2,482z M96.4,262v-33.3h319.2V262H96.4z"/>
	</g>
</g>
</svg>
