<?xml version="1.0" encoding="utf-8"?>
<!-- Generator: Adobe Illustrator 22.0.1, SVG Export Plug-In . SVG Version: 6.00 Build 0)  -->
<svg version="1.1" id="Capa_1" xmlns="http://www.w3.org/2000/svg" xmlns:xlink="http://www.w3.org/1999/xlink" x="0px" y="0px"
	 viewBox="0 0 401.6 375.4" style="enable-background:new 0 0 401.6 375.4;" xml:space="preserve">
<style type="text/css">
	.st0{fill:#F7E60F;}
</style>
<path class="st0" d="M116.7,272c11.3,0,22.2-0.7,32.5-2.1v-33.2c-10.3,1.4-21.2,2.1-32.5,2.1c-56.2,0-103.2-18.1-114.2-42.1
	c-1.7,3.6-2.5,7.2-2.5,10.9v11.5C0,248.3,52.2,272,116.7,272z"/>
<path class="st0" d="M149.2,302.4v-2.6c-10.3,1.4-21.2,2.1-32.5,2.1c-56.2,0-103.2-18.1-114.2-42.1c-1.6,3.5-2.5,7.1-2.5,10.8v11.5
	C0,311.3,52.2,335,116.7,335c12.9,0,25.3-1,36.9-2.7c-2.9-5.9-4.4-12.1-4.4-18.5L149.2,302.4L149.2,302.4z"/>
<path class="st0" d="M284.9,149.2c-56.2,0-103.2-18.1-114.2-42.1c-1.6,3.5-2.5,7.1-2.5,10.8v11.5c0,29.2,52.2,52.9,116.7,52.9
	c64.4,0,116.7-23.7,116.7-52.9v-11.5c0-3.7-0.8-7.3-2.5-10.8C388.1,131.2,341.2,149.2,284.9,149.2z"/>
<path class="st0" d="M284.9,212.3c-56.2,0-103.2-18.1-114.2-42.1c-1.6,3.5-2.5,7.1-2.5,10.8v11.5c0,29.2,52.2,52.9,116.7,52.9
	c64.4,0,116.7-23.7,116.7-52.9V181c0-3.7-0.8-7.3-2.5-10.8C388.1,194.3,341.2,212.3,284.9,212.3z"/>
<path class="st0" d="M284.9,278.6c-56.2,0-103.2-18.1-114.2-42.1c-1.6,3.5-2.5,7.1-2.5,10.8v11.5c0,29.2,52.2,52.9,116.7,52.9
	c64.4,0,116.7-23.7,116.7-52.9v-11.5c0-3.7-0.8-7.3-2.5-10.8C388.1,260.5,341.2,278.6,284.9,278.6z"/>
<path class="st0" d="M284.9,341.7c-56.2,0-103.2-18.1-114.2-42.1c-1.6,3.5-2.5,7.1-2.5,10.8v11.5c0,29.2,52.2,52.9,116.7,52.9
	c64.4,0,116.7-23.7,116.7-52.9v-11.5c0-3.7-0.8-7.3-2.5-10.8C388.1,323.6,341.2,341.7,284.9,341.7z"/>
<path class="st0" d="M284.9,2c-64.4,0-116.7,23.7-116.7,52.9v11.5c0,29.2,52.2,52.9,116.7,52.9c64.4,0,116.7-23.7,116.7-52.9V54.9
	C401.6,25.7,349.4,2,284.9,2z M284.9,88.3c-50,0-90.5-14.1-90.5-31.4s40.5-31.4,90.5-31.4c50,0,90.5,14.1,90.5,31.4
	S334.9,88.3,284.9,88.3z"/>
<path class="st0" d="M114.5,179c-50,0-90.5-14.1-90.5-31.4s40.5-31.4,90.5-31.4c12.3,0,24,0.9,34.7,2.4V93.7
	c-10.3-1.4-21.2-2.1-32.5-2.1C52.2,91.6,0,115.3,0,144.5V156c0,29.2,52.2,52.9,116.7,52.9c11.3,0,22.2-0.7,32.5-2.1v-30.2
	C138.5,178.1,126.8,179,114.5,179z"/>
</svg>
