<svg xmlns="http://www.w3.org/2000/svg" viewBox="993 494 35.52 35">
  <defs>
    <style>
      .cls-1 {
        fill: #f7e60f;
      }
    </style>
  </defs>
  <path id="freebies_icon" class="cls-1" d="M-699.817-509.505v-1.636a1.508,1.508,0,0,1,1.5-1.5,1.508,1.508,0,0,1,1.506,1.5v1.636A1.509,1.509,0,0,1-698.312-508,1.508,1.508,0,0,1-699.817-509.505Zm8.158-3.542-6.646-3.49-6.646,3.49a2.82,2.82,0,0,1-1.337.335,2.868,2.868,0,0,1-1.68-.553,2.836,2.836,0,0,1-1.142-2.8l1.265-7.4-5.374-5.243a2.833,2.833,0,0,1-.727-2.938,2.844,2.844,0,0,1,2.313-1.949l7.431-1.076,3.324-6.734a2.832,2.832,0,0,1,2.567-1.6,2.853,2.853,0,0,1,2.567,1.6l3.324,6.727,7.432,1.076a2.853,2.853,0,0,1,2.312,1.949,2.859,2.859,0,0,1-.727,2.938l-5.374,5.242,1.28,7.4a2.863,2.863,0,0,1-1.141,2.8,2.82,2.82,0,0,1-1.68.553A2.881,2.881,0,0,1-691.658-513.047Zm-5.308-6.2,6.443,3.388-1.229-7.177a2.869,2.869,0,0,1,.822-2.538l5.215-5.083-7.207-1.047a2.871,2.871,0,0,1-2.159-1.57l-3.222-6.53-3.221,6.53a2.881,2.881,0,0,1-2.16,1.57l-7.206,1.047,5.214,5.083a2.864,2.864,0,0,1,.822,2.538l-1.214,7.177,6.443-3.388a2.9,2.9,0,0,1,1.33-.328A2.842,2.842,0,0,1-696.966-519.242Zm14.435-.633-1.556-.5a1.5,1.5,0,0,1-.88-.749,1.5,1.5,0,0,1-.087-1.148,1.505,1.505,0,0,1,1.9-.967l1.556.5a1.5,1.5,0,0,1,.88.75,1.471,1.471,0,0,1,.087,1.148,1.51,1.51,0,0,1-1.433,1.04A1.436,1.436,0,0,1-682.531-519.875ZM-716-520.843a1.467,1.467,0,0,1,.087-1.148,1.5,1.5,0,0,1,.879-.75l1.557-.5a1.507,1.507,0,0,1,1.9.967,1.47,1.47,0,0,1-.087,1.148,1.5,1.5,0,0,1-.879.749l-1.556.5a1.44,1.44,0,0,1-.465.073A1.5,1.5,0,0,1-716-520.843Zm25.88-17.016a1.487,1.487,0,0,1-.6-.982,1.472,1.472,0,0,1,.269-1.12l.959-1.323a1.511,1.511,0,0,1,2.109-.335,1.511,1.511,0,0,1,.335,2.109l-.959,1.324a1.528,1.528,0,0,1-1.222.617A1.509,1.509,0,0,1-690.116-537.859Zm-18.5-.342-.96-1.316a1.511,1.511,0,0,1,.335-2.109,1.516,1.516,0,0,1,2.109.334l.96,1.324a1.465,1.465,0,0,1,.269,1.12,1.515,1.515,0,0,1-.6.982,1.507,1.507,0,0,1-.887.291A1.51,1.51,0,0,1-708.616-538.2Z" transform="translate(1709.075 1037)"/>
</svg>
