<?xml version="1.0" encoding="utf-8"?>
<!-- Generator: Adobe Illustrator 22.0.1, SVG Export Plug-In . SVG Version: 6.00 Build 0)  -->
<svg version="1.1" id="Capa_1" xmlns="http://www.w3.org/2000/svg" xmlns:xlink="http://www.w3.org/1999/xlink" x="0px" y="0px"
	 viewBox="0 0 77.8 77.8" style="enable-background:new 0 0 77.8 77.8;" xml:space="preserve">
<style type="text/css">
	.st0{fill:#F7E60F;}
</style>
<g>
	<path class="st0" d="M77.5,57.1c-0.3,1.3-1.3,1.8-2.4,2.1c-18.3,4.6-36.7,9.2-55,13.9C14.6,74.5,9,76,3.6,77.4
		c-1.7,0.4-2.9-0.1-3.3-1.6c-0.1-0.5,0-1.2,0.2-1.7c3.4-10.8,6.7-21.6,10.2-32.4c4.1-13.1,8.2-26.1,12.4-39.2c0.3-1,0.8-1.9,1.9-2.2
		c0.5,0,1.2,0,1.7,0c0.8,0.1,1.7,0.1,2.6,0.2c5.6,0.5,11,2,16.1,4.3c10.1,4.5,18.2,11.3,24.1,20.7c4.1,6.3,6.6,13.2,7.4,20.7
		c0.2,1.4,0.3,2.6,0.4,4C77.5,52.4,77.5,54.8,77.5,57.1z M59.3,58.6c1.4-0.3,2.7-0.6,4-1c0.2,0,0.3-0.3,0.4-0.5
		c0.5-4.2,0.4-8.4-0.5-12.5C59.5,29.3,50,19.5,35,15.1c-3.5-1-7.1-1.4-10.8-1.3c-0.1,0.2-0.1,0.3-0.2,0.5c-0.9,3-1.9,6-2.8,9.1
		c2.4,0.8,4.2,2.3,5.3,4.5c1.2,2.2,1.4,4.5,0.6,6.9c-0.6,2-1.8,3.7-3.6,4.8c-2.4,1.6-4.9,1.9-7.8,1.2C12.6,51.3,9.3,61.6,6,72.2
		c12.2-3,24-6.1,36-9.1c-1-2.6-1-5.2,0.2-7.8s3.4-4.1,6.1-4.7C52.8,49.4,58.5,52.3,59.3,58.6z M25.7,9.3
		c12.6,0.3,23.2,4.9,31.6,14.3c8.4,9.2,12,20.2,11,32.7c0.1,0,0.1,0,0.2,0c1-0.2,2.1-0.5,3.1-0.7c1.4-0.3,1.4-0.3,1.4-1.8
		c0.1-6.8-1-13.4-3.9-19.6C62.4,19.5,51.2,10.3,35.7,6.3C33,5.5,30.3,5.3,27.6,5c-0.2,0-0.6,0.1-0.7,0.3C26.5,6.6,26.1,7.8,25.7,9.3
		z M45.5,59.3c0.2,0.6,0.4,1.3,0.5,1.9c0.1,0.4,0.4,0.5,0.8,0.4c2.4-0.6,4.7-1.3,7.1-1.8c0.4-0.1,0.5-0.3,0.5-0.7
		c-0.1-2.4-2.1-4.4-4.6-4.4C47.6,54.8,45.6,56.8,45.5,59.3z M17.1,36.4c2.1,0.8,5-0.4,5.8-3.1c0.6-2.4-0.8-4.8-3-5.3
		C18.9,30.7,18.1,33.5,17.1,36.4z"/>
	<path class="st0" d="M18.5,54.7c0-5,4.1-9,9-9c5,0,9.1,4.1,9,9.1c0,4.9-4.1,9-9,9S18.5,59.7,18.5,54.7z M27.5,59.2
		c2.4,0,4.5-2,4.5-4.5c0-2.4-2-4.5-4.5-4.5s-4.5,2-4.5,4.5C23,57.2,25.1,59.2,27.5,59.2z"/>
	<path class="st0" d="M32.1,32.1c0-4.9,4.1-9,9.1-9c4.9,0,9,4.1,9,9c0,5-4.1,9-9,9C36.1,41.2,32,37.1,32.1,32.1z M41.1,27.6
		c-2.5,0-4.5,2.1-4.5,4.5c0,2.5,2,4.5,4.5,4.5c2.5,0,4.5-2.1,4.5-4.5S43.5,27.6,41.1,27.6z"/>
</g>
</svg>
