<svg xmlns="http://www.w3.org/2000/svg" viewBox="763 128 22.459 35">
  <defs>
    <style>
      .cls-1 {
        fill: #f7e60f;
      }
    </style>
  </defs>
  <path id="kisisel_bakim" class="cls-1" d="M-955.72-107.33c-2.181-1.312-3.253-3.714-3.253-7.355a32.52,32.52,0,0,1,2.809-12.732c.905-1.811,1.607-2.679,3.03-2.679a10.732,10.732,0,0,1,1.386.129,21.828,21.828,0,0,0,3.474.277h.075a23.935,23.935,0,0,0,3.418-.258,10.506,10.506,0,0,1,1.367-.13c1.423,0,2.107.85,3.012,2.661a33.648,33.648,0,0,1,2.828,12.732c0,3.641-1.054,6.043-3.253,7.355-1.867,1.109-4.325,1.33-7.448,1.33S-953.853-106.222-955.72-107.33Zm1.589-19.034a30.259,30.259,0,0,0-2.57,11.679c0,5.969,3.179,6.394,8.409,6.394,5.211,0,8.39-.444,8.427-6.394a30.424,30.424,0,0,0-2.569-11.679c-.61-1.219-.851-1.386-.887-1.4h-.093a9.248,9.248,0,0,0-1.053.111,23.592,23.592,0,0,1-3.732.3h-.093a24.363,24.363,0,0,1-3.77-.3c-.444-.056-.832-.111-1.072-.111h-.111C-953.281-127.769-953.521-127.584-954.13-126.365Zm.018,10.922a21.013,21.013,0,0,1,.425-3.881H-942.9a21.183,21.183,0,0,1,.426,3.881c0,3.7-1.535,4.361-5.821,4.361C-952.6-111.082-954.113-111.747-954.113-115.443Zm1.793-17.408v-2.79c0-1.146,1.09-2.107,2.587-2.495a6.408,6.408,0,0,1-.869-.85h-4.1l-3.77,2.495a1.013,1.013,0,0,1-.554.167.98.98,0,0,1-.832-.444.991.991,0,0,1,.277-1.386l4.029-2.679A.977.977,0,0,1-955-141h12.066a1.01,1.01,0,0,1,1,1.017.993.993,0,0,1-1,1h-3.049a9.422,9.422,0,0,1-.868.85c1.516.388,2.587,1.349,2.587,2.495v2.79c0,.536-1.811.979-4.028.979C-950.528-131.872-952.32-132.314-952.32-132.851Z" transform="translate(1723.032 269)"/>
</svg>
