<svg xmlns="http://www.w3.org/2000/svg" viewBox="758.534 441 32.499 36.033">
  <defs>
    <style>
      .cls-1 {
        fill: #f7e60f;
      }
    </style>
  </defs>
  <path id="mobilya_icon" class="cls-1" d="M32.5,16.279a4.928,4.928,0,0,0-3.181-4.448V5.744a5.556,5.556,0,0,0-1.856-4.458A6.074,6.074,0,0,0,23.574,0H8.886A6.074,6.074,0,0,0,5,1.286,5.556,5.556,0,0,0,3.142,5.744v6.087A4.824,4.824,0,0,0,0,16.347V26.873A4.668,4.668,0,0,0,4.124,31.88v2.1a2.057,2.057,0,0,0,2.052,2.052H7.629a2.057,2.057,0,0,0,2.052-2.052V31.949H22.818v2.032a2.057,2.057,0,0,0,2.052,2.052h1.453a2.057,2.057,0,0,0,2.052-2.052V31.89a4.655,4.655,0,0,0,3.063-1.679,5.382,5.382,0,0,0,1.06-3.338V16.279ZM8.886,2.651H23.574A2.709,2.709,0,0,1,26.627,5.7V11.6a4.8,4.8,0,0,0-3.81,4.713v.344H9.642v-.344A4.8,4.8,0,0,0,5.832,11.6V5.744A2.753,2.753,0,0,1,8.886,2.651Zm.756,20.285V19.342H22.778v3.594ZM6.991,16.308v7.972a1.341,1.341,0,0,0,1.345,1.345H24.163a1.341,1.341,0,0,0,1.345-1.345V16.308a2.15,2.15,0,1,1,4.3,0v9.926h-.039v.638A2.111,2.111,0,0,1,27.344,29.3H5.115A2.111,2.111,0,0,1,2.69,26.873V16.308a2.15,2.15,0,1,1,4.3,0Z" transform="translate(758.534 441)"/>
</svg>
