<svg xmlns="http://www.w3.org/2000/svg" viewBox="989 233 31.681 35">
  <defs>
    <style>
      .cls-1 {
        fill: #f7e60f;
      }
    </style>
  </defs>
  <path id="music_icon" class="cls-1" d="M31.069.315h0a1.5,1.5,0,0,0-1.337-.22L10.326,6.26A1.5,1.5,0,0,0,9.287,7.682v18.07a7.276,7.276,0,0,0-3.15-.7,6.992,6.992,0,0,0-4.181,1.323,4.407,4.407,0,0,0,0,7.325,6.992,6.992,0,0,0,4.181,1.323A6.992,6.992,0,0,0,10.318,33.7a4.571,4.571,0,0,0,1.956-3.662V15.3l16.42-5.22v9.486a7.276,7.276,0,0,0-3.15-.7,6.992,6.992,0,0,0-4.181,1.323,4.407,4.407,0,0,0,0,7.325,7.271,7.271,0,0,0,8.363,0,4.571,4.571,0,0,0,1.956-3.662V1.517A1.482,1.482,0,0,0,31.069.315ZM28.694,3.558V6.95l-16.42,5.213V8.771ZM28.7,23.846c-.007,1.067-1.479,2-3.15,2s-3.15-.932-3.15-2,1.472-2,3.15-2S28.7,22.78,28.7,23.846ZM9.287,30.04c0,1.067-1.472,2-3.15,2s-3.15-.932-3.15-2,1.472-2,3.15-2S9.287,28.974,9.287,30.04Z" transform="translate(989 232.975)"/>
</svg>
