<?xml version="1.0" encoding="utf-8"?>
<!-- Generator: Adobe Illustrator 22.0.1, SVG Export Plug-In . SVG Version: 6.00 Build 0)  -->
<svg version="1.1" id="Capa_1" xmlns="http://www.w3.org/2000/svg" xmlns:xlink="http://www.w3.org/1999/xlink" x="0px" y="0px"
	 viewBox="0 0 511.9 511.9" style="enable-background:new 0 0 511.9 511.9;" xml:space="preserve">
<style type="text/css">
	.st0{fill:#F7E60F;}
</style>
<g>
	<path class="st0" d="M219,243.2c0-3.4-1.3-6.7-3.8-9.1c-2.4-2.4-5.7-3.8-9.1-3.8c-3.4,0-6.7,1.3-9.1,3.8c-1.6,1.6-2.7,3.5-3.3,5.6
		l-35.4-20.5c-2.2-1.6-3.6-4-3.9-6.7v-6.6c0-7.1-5.8-12.9-12.9-12.9s-12.9,5.8-12.9,12.9v6.9l0,0.3c0.5,11.5,6.6,22.1,16.3,28.2
		l44.5,25.7c3.3,2,7.1,3.1,11,3.1c0,0,0.1,0,0.1,0c3.1,0,6.2-0.8,9-2.4l0.2-0.1c6-3.8,9.5-10.6,9.2-17.7V243.2z"/>
	<path class="st0" d="M145,375.7l44.5,25.7c3.3,2,7.1,3.1,11,3.1c0,0,0.1,0,0.1,0c3.1,0,6.2-0.8,9-2.4l0.2-0.1
		c6-3.8,9.5-10.6,9.1-17.7v-6.8c0-3.4-1.4-6.7-3.8-9.1c-2.4-2.4-5.7-3.8-9.1-3.8c-3.4,0-6.7,1.3-9.1,3.8c-1.6,1.6-2.7,3.5-3.3,5.6
		l-35.5-20.5c-2.2-1.6-3.6-4-3.9-6.7v-6.6c0-7.1-5.8-12.9-12.9-12.9s-12.9,5.8-12.9,12.9v6.9l0,0.3C129.1,359,135.2,369.5,145,375.7
		z"/>
	<path class="st0" d="M455.9,133.4c0-0.2-0.1-0.5-0.1-0.7c-0.5-3.1-2.1-5.9-4.6-7.9c-0.2-0.1-0.3-0.3-0.5-0.4
		c-0.2-0.2-0.6-0.5-1.1-0.8L239.5,2.3l-0.4-0.2L238.7,2c-0.3-0.1-0.6-0.2-0.9-0.3c-0.7-0.3-1.4-0.5-2.2-0.7l-0.3-0.1
		c-0.7-0.1-1.5-0.2-2.2-0.2c-0.8,0-1.6,0-2.3,0.2L230.5,1c-0.7,0.2-1.4,0.4-2.1,0.7c-0.3,0.1-0.6,0.2-0.9,0.3L227,2.1L62.3,97.2
		l-0.1,0.1c-1.3,0.8-2.4,1.8-3.4,3c-0.2,0.3-0.4,0.5-0.6,0.8c-0.8,1.2-1.5,2.5-1.9,3.9l-0.1,0.5l0,0.1c-0.2,0.9-0.3,1.9-0.3,2.9V377
		c0,4.6,2.5,8.9,6.4,11.2l210,121.3l0.5,0.3l0.2,0.1c0.5,0.2,1,0.4,1.5,0.6c0.2,0.1,0.6,0.2,1,0.4l0.3,0.1c0.6,0.1,1.2,0.2,1.8,0.3
		c0.3,0,0.7,0.1,1.2,0.1c2.3,0,4.5-0.6,6.4-1.7l164.3-94.9l0.4-0.2l0.3-0.3c0.2-0.2,0.5-0.4,0.7-0.6c2.6-1.9,4.3-4.8,4.7-8
		c0.1-0.4,0.2-0.8,0.2-1.2l0.1-0.4V134.7C456,134.2,455.9,133.7,455.9,133.4z M81.7,235.3V130.6L265.9,237l0,104.6L81.7,235.3z
		 M265.9,371.4l0,104.6L81.7,369.6V265L265.9,371.4z M417.4,134.7l-138.6,80L94.5,108.4l138.5-80L417.4,134.7z M430.2,157v239
		l-138.6,80V237L430.2,157z"/>
</g>
</svg>
