<?xml version="1.0" encoding="utf-8"?>
<!-- Generator: Adobe Illustrator 22.0.1, SVG Export Plug-In . SVG Version: 6.00 Build 0)  -->
<svg version="1.1" id="Layer_1" xmlns="http://www.w3.org/2000/svg" xmlns:xlink="http://www.w3.org/1999/xlink" x="0px" y="0px"
	 viewBox="0 0 512 512" style="enable-background:new 0 0 512 512;" xml:space="preserve">
<style type="text/css">
	.st0{fill:#F7E60F;}
</style>
<g>
	<path class="st0" d="M156.1,284.3h-55.7c-0.9-4.9-1.5-9.8-1.9-14.6c-0.7-8.2-7.9-14.3-16.2-13.6c-4,0.3-7.6,2.2-10.2,5.3
		s-3.8,6.9-3.5,10.9c0.9,10.4,2.6,20.7,5.2,30.7l0.1,0.3l0,0c17.1,66.1,68.8,117.7,135,134.8c1.2,0.3,2.5,0.5,3.7,0.5
		c3.3,0,6.6-1.1,9.2-3.1c3.6-2.8,5.8-7.2,5.8-11.8v-67.7C227.7,316.4,195.6,284.3,156.1,284.3z M197.8,403
		C157,387,125.1,355,109,314.2h47.2c23,0,41.6,18.7,41.6,41.6V403z"/>
	<path class="st0" d="M434.8,77.2C387.1,29.4,323.6,3.1,256,3.1c-67.6,0-131.1,26.3-178.8,74.1C29.4,124.9,3.1,188.4,3.1,256
		c0,67.6,26.3,131.1,74.1,178.8c47.8,47.8,111.3,74.1,178.8,74.1c67.6,0,131.1-26.3,178.8-74.1c47.8-47.8,74.1-111.3,74.1-178.8
		S482.6,124.9,434.8,77.2z M256,479c-122.9,0-223-100-223-223s100-223,223-223s223,100,223,223S378.9,479,256,479z"/>
	<path class="st0" d="M423.6,284.3h-67.7c-39.5,0-71.6,32.1-71.6,71.6v67.7c0,4.7,2.1,9,5.8,11.8c2.6,2,5.9,3.1,9.2,3.1
		c1.3,0,2.5-0.2,3.7-0.5C369.3,421,421,369.3,438.1,303c1.1-4.4,0.1-9.3-2.7-12.9C432.6,286.5,428.2,284.3,423.6,284.3z M314.2,403
		v-47.2c0-23,18.7-41.6,41.6-41.6H403C387,355,355,387,314.2,403z"/>
	<circle class="st0" cx="256" cy="263.3" r="34.2"/>
	<path class="st0" d="M435.4,199.8l-0.1-0.2c-11.7-37.3-35.5-70.8-67-94.3C335.7,80.9,296.9,68,256,68c-40.9,0-79.7,12.9-112.3,37.3
		c-31.6,23.5-55.4,57.1-67.1,94.5c-1.5,4.9-0.5,10.2,2.9,14.2c3.4,3.9,8.4,5.9,13.5,5.1c40.6-5.9,101.9-13,163-13
		c57.2,0,114.5,6.2,153.4,11.6c3,11.5,3.5,15.3,3.6,21.4c0.1,8.3,6.7,14.9,15,14.9c8.2,0,15-6.7,15-15
		C443,225.9,441.2,218.1,435.4,199.8z M256,176.1c-52.5,0-104.9,5.1-141.8,9.8c26.4-53.7,81.3-88,141.8-88
		c60.5,0,115.4,34.3,141.8,88C360.9,181.3,308.5,176.1,256,176.1z"/>
</g>
</svg>
