<?xml version="1.0" encoding="utf-8"?>
<!-- Generator: Adobe Illustrator 22.0.1, SVG Export Plug-In . SVG Version: 6.00 Build 0)  -->
<svg version="1.1" id="Capa_1" xmlns="http://www.w3.org/2000/svg" xmlns:xlink="http://www.w3.org/1999/xlink" x="0px" y="0px"
	 viewBox="0 0 77.8 77.8" style="enable-background:new 0 0 77.8 77.8;" xml:space="preserve">
<style type="text/css">
	.st0{fill:#F7E60F;}
</style>
<path class="st0" d="M38.9,0.6C17.8,0.6,0.6,17.8,0.6,38.9c0,2.2,0.2,4.5,0.6,6.7l0.2,1.2c3.7,17.7,19.4,30.5,37.5,30.5
	C60,77.2,77.2,60,77.2,38.9C77.2,17.8,60,0.6,38.9,0.6z M58.4,11.8c5,3.6,8.9,8.5,11.3,14.2c-0.1,10.1-8.3,13-13.1,13.9
	C59.6,28.7,59.2,18.2,58.4,11.8z M38.9,5.5c4.9,0,9.7,1.1,14.2,3.1c0.6,3.6,2.6,17.1-1.4,31.1c-7.4-2.3-8.5-8-10.1-16.4
	c-1.1-5.5-2.2-11.7-5.8-17.7C36.8,5.5,37.9,5.5,38.9,5.5z M30.7,6.6c3.9,5.7,5.1,12,6.1,17.7c1.6,8.3,3.2,16.8,13.3,20.1
	c-0.6,1.5-1.2,3-1.9,4.4c-20.1-10-32.8-25.5-36-29.8C16.8,12.9,23.3,8.5,30.7,6.6z M5.4,38.9c0-5.5,1.4-10.9,3.9-15.7
	c4.6,5.7,17.3,20.1,36.4,29.7c-0.4,0.8-0.9,1.6-1.5,2.4c-5.6-2.6-10.7-3-15.8-3.4c-6.9-0.6-14-1.1-22.6-7.8
	C5.5,42.4,5.4,40.6,5.4,38.9z M7.8,51.3c7.5,4.4,14,4.9,20.2,5.4c4.4,0.4,8.6,0.7,13,2.5c-3.9,4.3-8.8,8-14.4,10.8
	C18.1,66.6,11.2,59.8,7.8,51.3z M48.8,70.8c-5,1.6-10.4,1.9-15.6,1.1c4.8-2.9,8.9-6.4,12.3-10.4c1.4,0.9,3.7,2.6,4.3,4.8
	C50.2,67.7,49.9,69.2,48.8,70.8z M54.8,68.3c0.1-1.1,0-2.2-0.3-3.3c-1-3.5-3.9-6-6-7.4c0.6-0.9,1.2-1.7,1.7-2.6
	c4.8,2.1,9.7,3.7,14.6,5C62.1,63.4,58.7,66.2,54.8,68.3z M52.7,50.8c0.9-1.8,1.7-3.8,2.4-5.8c3.2-0.3,9.9-1.5,14.7-6.4
	c1-1,1.8-2,2.5-3.2c0,1.2,0.1,2.3,0.1,3.5c0,5.9-1.6,11.7-4.5,16.8C62.8,54.6,57.6,52.9,52.7,50.8z"/>
</svg>
