<svg xmlns="http://www.w3.org/2000/svg" viewBox="757 494 35.007 35">
  <defs>
    <style>
      .cls-1 {
        fill: #f7e60f;
      }
    </style>
  </defs>
  <path id="tatil_gezi_icon" class="cls-1" d="M-711.859-444A5.143,5.143,0,0,1-717-449.134v-4.423a5.143,5.143,0,0,1,4.512-5.1v-4.826a.724.724,0,0,1,.014-.13,5.713,5.713,0,0,1-.834-2.98v-3.521a.686.686,0,0,1,.683-.684h.76a4.761,4.761,0,0,1-1.443-3.417A4.791,4.791,0,0,1-708.523-479h18.047a4.791,4.791,0,0,1,4.785,4.785,4.765,4.765,0,0,1-1.443,3.417h.759a.686.686,0,0,1,.684.684v3.521a5.722,5.722,0,0,1-.834,2.98.8.8,0,0,1,.013.13v4.826a5.154,5.154,0,0,1,4.519,5.093v4.423A5.148,5.148,0,0,1-687.134-444Zm.738-4.512a3.145,3.145,0,0,0,3.145,3.145h16.953a3.145,3.145,0,0,0,3.145-3.145v-13.556a5.721,5.721,0,0,1-1.921,1v1.135a2.331,2.331,0,0,1-2.325,2.325,2.331,2.331,0,0,1-2.324-2.325v-.888h-10.1v.888a2.331,2.331,0,0,1-2.325,2.325,2.331,2.331,0,0,1-2.324-2.325v-1.135a5.726,5.726,0,0,1-1.922-1Zm6.57-13.672h10.1v-7.247h-2.338a.684.684,0,0,1-.683-.683.685.685,0,0,1,.683-.684h2.338v-6.836h-10.1v6.836h1.517a.685.685,0,0,1,.683.684.684.684,0,0,1-.683.683h-1.517Zm14.752-.328a4.42,4.42,0,0,0,2.741-4.081v-2.838H-689.8Zm-22.142-4.081a4.42,4.42,0,0,0,2.741,4.081v-6.918h-2.741Zm22.142-4.273a3.417,3.417,0,0,0,2.741-3.349,3.424,3.424,0,0,0-2.741-3.35Zm-22.142-3.349a3.416,3.416,0,0,0,2.741,3.349v-6.7A3.417,3.417,0,0,0-711.941-474.215Zm7.93,27.207a2.734,2.734,0,0,1-2.734-2.735v-4.306a2.875,2.875,0,0,1,2.871-2.871h8.75a2.86,2.86,0,0,1,2.858,2.871v4.306A2.734,2.734,0,0,1-695-447.008Z" transform="translate(1474 973)"/>
</svg>
