<svg xmlns="http://www.w3.org/2000/svg" viewBox="757 183 35 29.994">
  <defs>
    <style>
      .cls-1 {
        fill: #f7e60f;
      }
    </style>
  </defs>
  <path id="yazilim_icon" class="cls-1" d="M-716.5-161.006a2.522,2.522,0,0,1-2.5-2.5V-188.5a2.522,2.522,0,0,1,2.5-2.5h29.994a2.383,2.383,0,0,1,2.5,2.5v24.994a2.521,2.521,0,0,1-2.5,2.5Zm0-2.5h29.994v-21.245H-716.5Zm4.431-24.313a1.261,1.261,0,0,0,1.249,1.25,1.261,1.261,0,0,0,1.25-1.25,1.261,1.261,0,0,0-1.25-1.249A1.192,1.192,0,0,0-712.07-187.819Zm-3.749,0a1.261,1.261,0,0,0,1.249,1.25,1.261,1.261,0,0,0,1.249-1.25,1.192,1.192,0,0,0-1.249-1.249A1.136,1.136,0,0,0-715.819-187.819Zm2.84,11.7,6.135-2.613v-.113l-6.135-2.613v-1.818l8.067,3.749v1.477l-8.067,3.749Zm11.816-1.818v-1.7h4.431v1.7Z" transform="translate(1476 374)"/>
</svg>
