<svg xmlns="http://www.w3.org/2000/svg" viewBox="757 390 34.982 35">
  <defs>
    <style>
      .cls-1 {
        fill: #f7e60f;
      }
    </style>
  </defs>
  <path id="yeme_icme_icon" class="cls-1" d="M-687.269-326.887l-11.574-12.941-1.654,1.654-12.517-12.517a7.169,7.169,0,0,1-2.01-4.58,11.476,11.476,0,0,1,.841-5.079l.253-.65h1.251l16.038,16.038,13.72,13.72a3.085,3.085,0,0,1,.007,4.355,3.062,3.062,0,0,1-2.171.887A3.089,3.089,0,0,1-687.269-326.887Zm-28.829-.027a3.078,3.078,0,0,1,0-4.355l9.8-9.8,4.355,4.354-9.8,9.8a3.057,3.057,0,0,1-2.169.892A3.1,3.1,0,0,1-716.1-326.914Zm17.842-22.567a2.88,2.88,0,0,0,.212-.923,5.113,5.113,0,0,1,1.49-3.316l7.254-7.253,1.462,1.443-5.565,5.565,1.449,1.449,5.558-5.557,1.449,1.449-5.565,5.565,1.449,1.45,5.565-5.558,1.45,1.449-7.253,7.254a5.1,5.1,0,0,1-3.316,1.49,3.114,3.114,0,0,0-.93.205Z" transform="translate(1474 751)"/>
</svg>
